<?xml version="1.0" encoding="utf-8" standalone="no"?>
<!DOCTYPE svg PUBLIC "-//W3C//DTD SVG 1.1//EN"
  "http://www.w3.org/Graphics/SVG/1.1/DTD/svg11.dtd">
<svg xmlns:xlink="http://www.w3.org/1999/xlink" width="460.8pt" height="345.6pt" viewBox="0 0 460.8 345.6" xmlns="http://www.w3.org/2000/svg" version="1.1">
 <metadata>
  <rdf:RDF xmlns:dc="http://purl.org/dc/elements/1.1/" xmlns:cc="http://creativecommons.org/ns#" xmlns:rdf="http://www.w3.org/1999/02/22-rdf-syntax-ns#">
   <cc:Work>
    <dc:type rdf:resource="http://purl.org/dc/dcmitype/StillImage"/>
    <dc:date>2023-11-10T08:33:40.062439</dc:date>
    <dc:format>image/svg+xml</dc:format>
    <dc:creator>
     <cc:Agent>
      <dc:title>Matplotlib v3.8.0, https://matplotlib.org/</dc:title>
     </cc:Agent>
    </dc:creator>
   </cc:Work>
  </rdf:RDF>
 </metadata>
 <defs>
  <style type="text/css">*{stroke-linejoin: round; stroke-linecap: butt}</style>
 </defs>
 <g id="figure_1">
  <g id="patch_1">
   <path d="M 0 345.6 
L 460.8 345.6 
L 460.8 0 
L 0 0 
z
" style="fill: #ffffff"/>
  </g>
  <g id="axes_1">
   <g id="patch_2">
    <path d="M 45.75 312.9 
L 448.585244 312.9 
L 448.585244 24 
L 45.75 24 
z
" style="fill: #ffffff"/>
   </g>
   <g id="matplotlib.axis_1">
    <g id="xtick_1">
     <g id="line2d_1">
      <defs>
       <path id="mc50de96d82" d="M 0 0 
L 0 -3.5 
" style="stroke: #000000; stroke-width: 0.8"/>
      </defs>
      <g>
       <use xlink:href="#mc50de96d82" x="45.75" y="312.9" style="stroke: #000000; stroke-width: 0.8"/>
      </g>
     </g>
     <g id="line2d_2">
      <defs>
       <path id="m6b578b8aea" d="M 0 0 
L 0 3.5 
" style="stroke: #000000; stroke-width: 0.8"/>
      </defs>
      <g>
       <use xlink:href="#m6b578b8aea" x="45.75" y="24" style="stroke: #000000; stroke-width: 0.8"/>
      </g>
     </g>
     <g id="text_1">
      <!-- 0 -->
      <g transform="translate(43.205 322.47875) scale(0.08 -0.08)">
       <defs>
        <path id="DejaVuSans-30" d="M 2034 4250 
Q 1547 4250 1301 3770 
Q 1056 3291 1056 2328 
Q 1056 1369 1301 889 
Q 1547 409 2034 409 
Q 2525 409 2770 889 
Q 3016 1369 3016 2328 
Q 3016 3291 2770 3770 
Q 2525 4250 2034 4250 
z
M 2034 4750 
Q 2819 4750 3233 4129 
Q 3647 3509 3647 2328 
Q 3647 1150 3233 529 
Q 2819 -91 2034 -91 
Q 1250 -91 836 529 
Q 422 1150 422 2328 
Q 422 3509 836 4129 
Q 1250 4750 2034 4750 
z
" transform="scale(0.015625)"/>
       </defs>
       <use xlink:href="#DejaVuSans-30"/>
      </g>
     </g>
    </g>
    <g id="xtick_2">
     <g id="line2d_3">
      <g>
       <use xlink:href="#mc50de96d82" x="94.876249" y="312.9" style="stroke: #000000; stroke-width: 0.8"/>
      </g>
     </g>
     <g id="line2d_4">
      <g>
       <use xlink:href="#m6b578b8aea" x="94.876249" y="24" style="stroke: #000000; stroke-width: 0.8"/>
      </g>
     </g>
     <g id="text_2">
      <!-- 250 -->
      <g transform="translate(87.241249 322.47875) scale(0.08 -0.08)">
       <defs>
        <path id="DejaVuSans-32" d="M 1228 531 
L 3431 531 
L 3431 0 
L 469 0 
L 469 531 
Q 828 903 1448 1529 
Q 2069 2156 2228 2338 
Q 2531 2678 2651 2914 
Q 2772 3150 2772 3378 
Q 2772 3750 2511 3984 
Q 2250 4219 1831 4219 
Q 1534 4219 1204 4116 
Q 875 4013 500 3803 
L 500 4441 
Q 881 4594 1212 4672 
Q 1544 4750 1819 4750 
Q 2544 4750 2975 4387 
Q 3406 4025 3406 3419 
Q 3406 3131 3298 2873 
Q 3191 2616 2906 2266 
Q 2828 2175 2409 1742 
Q 1991 1309 1228 531 
z
" transform="scale(0.015625)"/>
        <path id="DejaVuSans-35" d="M 691 4666 
L 3169 4666 
L 3169 4134 
L 1269 4134 
L 1269 2991 
Q 1406 3038 1543 3061 
Q 1681 3084 1819 3084 
Q 2600 3084 3056 2656 
Q 3513 2228 3513 1497 
Q 3513 744 3044 326 
Q 2575 -91 1722 -91 
Q 1428 -91 1123 -41 
Q 819 9 494 109 
L 494 744 
Q 775 591 1075 516 
Q 1375 441 1709 441 
Q 2250 441 2565 725 
Q 2881 1009 2881 1497 
Q 2881 1984 2565 2268 
Q 2250 2553 1709 2553 
Q 1456 2553 1204 2497 
Q 953 2441 691 2322 
L 691 4666 
z
" transform="scale(0.015625)"/>
       </defs>
       <use xlink:href="#DejaVuSans-32"/>
       <use xlink:href="#DejaVuSans-35" x="63.623047"/>
       <use xlink:href="#DejaVuSans-30" x="127.246094"/>
      </g>
     </g>
    </g>
    <g id="xtick_3">
     <g id="line2d_5">
      <g>
       <use xlink:href="#mc50de96d82" x="144.002499" y="312.9" style="stroke: #000000; stroke-width: 0.8"/>
      </g>
     </g>
     <g id="line2d_6">
      <g>
       <use xlink:href="#m6b578b8aea" x="144.002499" y="24" style="stroke: #000000; stroke-width: 0.8"/>
      </g>
     </g>
     <g id="text_3">
      <!-- 500 -->
      <g transform="translate(136.367499 322.47875) scale(0.08 -0.08)">
       <use xlink:href="#DejaVuSans-35"/>
       <use xlink:href="#DejaVuSans-30" x="63.623047"/>
       <use xlink:href="#DejaVuSans-30" x="127.246094"/>
      </g>
     </g>
    </g>
    <g id="xtick_4">
     <g id="line2d_7">
      <g>
       <use xlink:href="#mc50de96d82" x="193.128748" y="312.9" style="stroke: #000000; stroke-width: 0.8"/>
      </g>
     </g>
     <g id="line2d_8">
      <g>
       <use xlink:href="#m6b578b8aea" x="193.128748" y="24" style="stroke: #000000; stroke-width: 0.8"/>
      </g>
     </g>
     <g id="text_4">
      <!-- 750 -->
      <g transform="translate(185.493748 322.47875) scale(0.08 -0.08)">
       <defs>
        <path id="DejaVuSans-37" d="M 525 4666 
L 3525 4666 
L 3525 4397 
L 1831 0 
L 1172 0 
L 2766 4134 
L 525 4134 
L 525 4666 
z
" transform="scale(0.015625)"/>
       </defs>
       <use xlink:href="#DejaVuSans-37"/>
       <use xlink:href="#DejaVuSans-35" x="63.623047"/>
       <use xlink:href="#DejaVuSans-30" x="127.246094"/>
      </g>
     </g>
    </g>
    <g id="xtick_5">
     <g id="line2d_9">
      <g>
       <use xlink:href="#mc50de96d82" x="242.254997" y="312.9" style="stroke: #000000; stroke-width: 0.8"/>
      </g>
     </g>
     <g id="line2d_10">
      <g>
       <use xlink:href="#m6b578b8aea" x="242.254997" y="24" style="stroke: #000000; stroke-width: 0.8"/>
      </g>
     </g>
     <g id="text_5">
      <!-- 1000 -->
      <g transform="translate(232.074997 322.47875) scale(0.08 -0.08)">
       <defs>
        <path id="DejaVuSans-31" d="M 794 531 
L 1825 531 
L 1825 4091 
L 703 3866 
L 703 4441 
L 1819 4666 
L 2450 4666 
L 2450 531 
L 3481 531 
L 3481 0 
L 794 0 
L 794 531 
z
" transform="scale(0.015625)"/>
       </defs>
       <use xlink:href="#DejaVuSans-31"/>
       <use xlink:href="#DejaVuSans-30" x="63.623047"/>
       <use xlink:href="#DejaVuSans-30" x="127.246094"/>
       <use xlink:href="#DejaVuSans-30" x="190.869141"/>
      </g>
     </g>
    </g>
    <g id="xtick_6">
     <g id="line2d_11">
      <g>
       <use xlink:href="#mc50de96d82" x="291.381246" y="312.9" style="stroke: #000000; stroke-width: 0.8"/>
      </g>
     </g>
     <g id="line2d_12">
      <g>
       <use xlink:href="#m6b578b8aea" x="291.381246" y="24" style="stroke: #000000; stroke-width: 0.8"/>
      </g>
     </g>
     <g id="text_6">
      <!-- 1250 -->
      <g transform="translate(281.201246 322.47875) scale(0.08 -0.08)">
       <use xlink:href="#DejaVuSans-31"/>
       <use xlink:href="#DejaVuSans-32" x="63.623047"/>
       <use xlink:href="#DejaVuSans-35" x="127.246094"/>
       <use xlink:href="#DejaVuSans-30" x="190.869141"/>
      </g>
     </g>
    </g>
    <g id="xtick_7">
     <g id="line2d_13">
      <g>
       <use xlink:href="#mc50de96d82" x="340.507496" y="312.9" style="stroke: #000000; stroke-width: 0.8"/>
      </g>
     </g>
     <g id="line2d_14">
      <g>
       <use xlink:href="#m6b578b8aea" x="340.507496" y="24" style="stroke: #000000; stroke-width: 0.8"/>
      </g>
     </g>
     <g id="text_7">
      <!-- 1500 -->
      <g transform="translate(330.327496 322.47875) scale(0.08 -0.08)">
       <use xlink:href="#DejaVuSans-31"/>
       <use xlink:href="#DejaVuSans-35" x="63.623047"/>
       <use xlink:href="#DejaVuSans-30" x="127.246094"/>
       <use xlink:href="#DejaVuSans-30" x="190.869141"/>
      </g>
     </g>
    </g>
    <g id="xtick_8">
     <g id="line2d_15">
      <g>
       <use xlink:href="#mc50de96d82" x="389.633745" y="312.9" style="stroke: #000000; stroke-width: 0.8"/>
      </g>
     </g>
     <g id="line2d_16">
      <g>
       <use xlink:href="#m6b578b8aea" x="389.633745" y="24" style="stroke: #000000; stroke-width: 0.8"/>
      </g>
     </g>
     <g id="text_8">
      <!-- 1750 -->
      <g transform="translate(379.453745 322.47875) scale(0.08 -0.08)">
       <use xlink:href="#DejaVuSans-31"/>
       <use xlink:href="#DejaVuSans-37" x="63.623047"/>
       <use xlink:href="#DejaVuSans-35" x="127.246094"/>
       <use xlink:href="#DejaVuSans-30" x="190.869141"/>
      </g>
     </g>
    </g>
    <g id="xtick_9">
     <g id="line2d_17">
      <g>
       <use xlink:href="#mc50de96d82" x="438.759994" y="312.9" style="stroke: #000000; stroke-width: 0.8"/>
      </g>
     </g>
     <g id="line2d_18">
      <g>
       <use xlink:href="#m6b578b8aea" x="438.759994" y="24" style="stroke: #000000; stroke-width: 0.8"/>
      </g>
     </g>
     <g id="text_9">
      <!-- 2000 -->
      <g transform="translate(428.579994 322.47875) scale(0.08 -0.08)">
       <use xlink:href="#DejaVuSans-32"/>
       <use xlink:href="#DejaVuSans-30" x="63.623047"/>
       <use xlink:href="#DejaVuSans-30" x="127.246094"/>
       <use xlink:href="#DejaVuSans-30" x="190.869141"/>
      </g>
     </g>
    </g>
    <g id="text_10">
     <!-- CCD Column -->
     <g transform="translate(221.911997 334.22125) scale(0.08 -0.08)">
      <defs>
       <path id="DejaVuSans-43" d="M 4122 4306 
L 4122 3641 
Q 3803 3938 3442 4084 
Q 3081 4231 2675 4231 
Q 1875 4231 1450 3742 
Q 1025 3253 1025 2328 
Q 1025 1406 1450 917 
Q 1875 428 2675 428 
Q 3081 428 3442 575 
Q 3803 722 4122 1019 
L 4122 359 
Q 3791 134 3420 21 
Q 3050 -91 2638 -91 
Q 1578 -91 968 557 
Q 359 1206 359 2328 
Q 359 3453 968 4101 
Q 1578 4750 2638 4750 
Q 3056 4750 3426 4639 
Q 3797 4528 4122 4306 
z
" transform="scale(0.015625)"/>
       <path id="DejaVuSans-44" d="M 1259 4147 
L 1259 519 
L 2022 519 
Q 2988 519 3436 956 
Q 3884 1394 3884 2338 
Q 3884 3275 3436 3711 
Q 2988 4147 2022 4147 
L 1259 4147 
z
M 628 4666 
L 1925 4666 
Q 3281 4666 3915 4102 
Q 4550 3538 4550 2338 
Q 4550 1131 3912 565 
Q 3275 0 1925 0 
L 628 0 
L 628 4666 
z
" transform="scale(0.015625)"/>
       <path id="DejaVuSans-20" transform="scale(0.015625)"/>
       <path id="DejaVuSans-6f" d="M 1959 3097 
Q 1497 3097 1228 2736 
Q 959 2375 959 1747 
Q 959 1119 1226 758 
Q 1494 397 1959 397 
Q 2419 397 2687 759 
Q 2956 1122 2956 1747 
Q 2956 2369 2687 2733 
Q 2419 3097 1959 3097 
z
M 1959 3584 
Q 2709 3584 3137 3096 
Q 3566 2609 3566 1747 
Q 3566 888 3137 398 
Q 2709 -91 1959 -91 
Q 1206 -91 779 398 
Q 353 888 353 1747 
Q 353 2609 779 3096 
Q 1206 3584 1959 3584 
z
" transform="scale(0.015625)"/>
       <path id="DejaVuSans-6c" d="M 603 4863 
L 1178 4863 
L 1178 0 
L 603 0 
L 603 4863 
z
" transform="scale(0.015625)"/>
       <path id="DejaVuSans-75" d="M 544 1381 
L 544 3500 
L 1119 3500 
L 1119 1403 
Q 1119 906 1312 657 
Q 1506 409 1894 409 
Q 2359 409 2629 706 
Q 2900 1003 2900 1516 
L 2900 3500 
L 3475 3500 
L 3475 0 
L 2900 0 
L 2900 538 
Q 2691 219 2414 64 
Q 2138 -91 1772 -91 
Q 1169 -91 856 284 
Q 544 659 544 1381 
z
M 1991 3584 
L 1991 3584 
z
" transform="scale(0.015625)"/>
       <path id="DejaVuSans-6d" d="M 3328 2828 
Q 3544 3216 3844 3400 
Q 4144 3584 4550 3584 
Q 5097 3584 5394 3201 
Q 5691 2819 5691 2113 
L 5691 0 
L 5113 0 
L 5113 2094 
Q 5113 2597 4934 2840 
Q 4756 3084 4391 3084 
Q 3944 3084 3684 2787 
Q 3425 2491 3425 1978 
L 3425 0 
L 2847 0 
L 2847 2094 
Q 2847 2600 2669 2842 
Q 2491 3084 2119 3084 
Q 1678 3084 1418 2786 
Q 1159 2488 1159 1978 
L 1159 0 
L 581 0 
L 581 3500 
L 1159 3500 
L 1159 2956 
Q 1356 3278 1631 3431 
Q 1906 3584 2284 3584 
Q 2666 3584 2933 3390 
Q 3200 3197 3328 2828 
z
" transform="scale(0.015625)"/>
       <path id="DejaVuSans-6e" d="M 3513 2113 
L 3513 0 
L 2938 0 
L 2938 2094 
Q 2938 2591 2744 2837 
Q 2550 3084 2163 3084 
Q 1697 3084 1428 2787 
Q 1159 2491 1159 1978 
L 1159 0 
L 581 0 
L 581 3500 
L 1159 3500 
L 1159 2956 
Q 1366 3272 1645 3428 
Q 1925 3584 2291 3584 
Q 2894 3584 3203 3211 
Q 3513 2838 3513 2113 
z
" transform="scale(0.015625)"/>
      </defs>
      <use xlink:href="#DejaVuSans-43"/>
      <use xlink:href="#DejaVuSans-43" x="69.824219"/>
      <use xlink:href="#DejaVuSans-44" x="139.648438"/>
      <use xlink:href="#DejaVuSans-20" x="216.650391"/>
      <use xlink:href="#DejaVuSans-43" x="248.4375"/>
      <use xlink:href="#DejaVuSans-6f" x="318.261719"/>
      <use xlink:href="#DejaVuSans-6c" x="379.443359"/>
      <use xlink:href="#DejaVuSans-75" x="407.226562"/>
      <use xlink:href="#DejaVuSans-6d" x="470.605469"/>
      <use xlink:href="#DejaVuSans-6e" x="568.017578"/>
     </g>
    </g>
   </g>
   <g id="matplotlib.axis_2">
    <g id="ytick_1">
     <g id="line2d_19">
      <defs>
       <path id="m9a8a7b6b83" d="M 0 0 
L 3.5 0 
" style="stroke: #000000; stroke-width: 0.8"/>
      </defs>
      <g>
       <use xlink:href="#m9a8a7b6b83" x="45.75" y="312.9" style="stroke: #000000; stroke-width: 0.8"/>
      </g>
     </g>
     <g id="line2d_20">
      <defs>
       <path id="md30ebcc828" d="M 0 0 
L -3.5 0 
" style="stroke: #000000; stroke-width: 0.8"/>
      </defs>
      <g>
       <use xlink:href="#md30ebcc828" x="448.585244" y="312.9" style="stroke: #000000; stroke-width: 0.8"/>
      </g>
     </g>
     <g id="text_11">
      <!-- 0 -->
      <g transform="translate(37.16 315.939375) scale(0.08 -0.08)">
       <use xlink:href="#DejaVuSans-30"/>
      </g>
     </g>
    </g>
    <g id="ytick_2">
     <g id="line2d_21">
      <g>
       <use xlink:href="#m9a8a7b6b83" x="45.75" y="280.368614" style="stroke: #000000; stroke-width: 0.8"/>
      </g>
     </g>
     <g id="line2d_22">
      <g>
       <use xlink:href="#md30ebcc828" x="448.585244" y="280.368614" style="stroke: #000000; stroke-width: 0.8"/>
      </g>
     </g>
     <g id="text_12">
      <!-- 500 -->
      <g transform="translate(26.98 283.407989) scale(0.08 -0.08)">
       <use xlink:href="#DejaVuSans-35"/>
       <use xlink:href="#DejaVuSans-30" x="63.623047"/>
       <use xlink:href="#DejaVuSans-30" x="127.246094"/>
      </g>
     </g>
    </g>
    <g id="ytick_3">
     <g id="line2d_23">
      <g>
       <use xlink:href="#m9a8a7b6b83" x="45.75" y="247.837228" style="stroke: #000000; stroke-width: 0.8"/>
      </g>
     </g>
     <g id="line2d_24">
      <g>
       <use xlink:href="#md30ebcc828" x="448.585244" y="247.837228" style="stroke: #000000; stroke-width: 0.8"/>
      </g>
     </g>
     <g id="text_13">
      <!-- 1000 -->
      <g transform="translate(21.89 250.876603) scale(0.08 -0.08)">
       <use xlink:href="#DejaVuSans-31"/>
       <use xlink:href="#DejaVuSans-30" x="63.623047"/>
       <use xlink:href="#DejaVuSans-30" x="127.246094"/>
       <use xlink:href="#DejaVuSans-30" x="190.869141"/>
      </g>
     </g>
    </g>
    <g id="ytick_4">
     <g id="line2d_25">
      <g>
       <use xlink:href="#m9a8a7b6b83" x="45.75" y="215.305842" style="stroke: #000000; stroke-width: 0.8"/>
      </g>
     </g>
     <g id="line2d_26">
      <g>
       <use xlink:href="#md30ebcc828" x="448.585244" y="215.305842" style="stroke: #000000; stroke-width: 0.8"/>
      </g>
     </g>
     <g id="text_14">
      <!-- 1500 -->
      <g transform="translate(21.89 218.345217) scale(0.08 -0.08)">
       <use xlink:href="#DejaVuSans-31"/>
       <use xlink:href="#DejaVuSans-35" x="63.623047"/>
       <use xlink:href="#DejaVuSans-30" x="127.246094"/>
       <use xlink:href="#DejaVuSans-30" x="190.869141"/>
      </g>
     </g>
    </g>
    <g id="ytick_5">
     <g id="line2d_27">
      <g>
       <use xlink:href="#m9a8a7b6b83" x="45.75" y="182.774456" style="stroke: #000000; stroke-width: 0.8"/>
      </g>
     </g>
     <g id="line2d_28">
      <g>
       <use xlink:href="#md30ebcc828" x="448.585244" y="182.774456" style="stroke: #000000; stroke-width: 0.8"/>
      </g>
     </g>
     <g id="text_15">
      <!-- 2000 -->
      <g transform="translate(21.89 185.813831) scale(0.08 -0.08)">
       <use xlink:href="#DejaVuSans-32"/>
       <use xlink:href="#DejaVuSans-30" x="63.623047"/>
       <use xlink:href="#DejaVuSans-30" x="127.246094"/>
       <use xlink:href="#DejaVuSans-30" x="190.869141"/>
      </g>
     </g>
    </g>
    <g id="ytick_6">
     <g id="line2d_29">
      <g>
       <use xlink:href="#m9a8a7b6b83" x="45.75" y="150.243071" style="stroke: #000000; stroke-width: 0.8"/>
      </g>
     </g>
     <g id="line2d_30">
      <g>
       <use xlink:href="#md30ebcc828" x="448.585244" y="150.243071" style="stroke: #000000; stroke-width: 0.8"/>
      </g>
     </g>
     <g id="text_16">
      <!-- 2500 -->
      <g transform="translate(21.89 153.282446) scale(0.08 -0.08)">
       <use xlink:href="#DejaVuSans-32"/>
       <use xlink:href="#DejaVuSans-35" x="63.623047"/>
       <use xlink:href="#DejaVuSans-30" x="127.246094"/>
       <use xlink:href="#DejaVuSans-30" x="190.869141"/>
      </g>
     </g>
    </g>
    <g id="ytick_7">
     <g id="line2d_31">
      <g>
       <use xlink:href="#m9a8a7b6b83" x="45.75" y="117.711685" style="stroke: #000000; stroke-width: 0.8"/>
      </g>
     </g>
     <g id="line2d_32">
      <g>
       <use xlink:href="#md30ebcc828" x="448.585244" y="117.711685" style="stroke: #000000; stroke-width: 0.8"/>
      </g>
     </g>
     <g id="text_17">
      <!-- 3000 -->
      <g transform="translate(21.89 120.75106) scale(0.08 -0.08)">
       <defs>
        <path id="DejaVuSans-33" d="M 2597 2516 
Q 3050 2419 3304 2112 
Q 3559 1806 3559 1356 
Q 3559 666 3084 287 
Q 2609 -91 1734 -91 
Q 1441 -91 1130 -33 
Q 819 25 488 141 
L 488 750 
Q 750 597 1062 519 
Q 1375 441 1716 441 
Q 2309 441 2620 675 
Q 2931 909 2931 1356 
Q 2931 1769 2642 2001 
Q 2353 2234 1838 2234 
L 1294 2234 
L 1294 2753 
L 1863 2753 
Q 2328 2753 2575 2939 
Q 2822 3125 2822 3475 
Q 2822 3834 2567 4026 
Q 2313 4219 1838 4219 
Q 1578 4219 1281 4162 
Q 984 4106 628 3988 
L 628 4550 
Q 988 4650 1302 4700 
Q 1616 4750 1894 4750 
Q 2613 4750 3031 4423 
Q 3450 4097 3450 3541 
Q 3450 3153 3228 2886 
Q 3006 2619 2597 2516 
z
" transform="scale(0.015625)"/>
       </defs>
       <use xlink:href="#DejaVuSans-33"/>
       <use xlink:href="#DejaVuSans-30" x="63.623047"/>
       <use xlink:href="#DejaVuSans-30" x="127.246094"/>
       <use xlink:href="#DejaVuSans-30" x="190.869141"/>
      </g>
     </g>
    </g>
    <g id="ytick_8">
     <g id="line2d_33">
      <g>
       <use xlink:href="#m9a8a7b6b83" x="45.75" y="85.180299" style="stroke: #000000; stroke-width: 0.8"/>
      </g>
     </g>
     <g id="line2d_34">
      <g>
       <use xlink:href="#md30ebcc828" x="448.585244" y="85.180299" style="stroke: #000000; stroke-width: 0.8"/>
      </g>
     </g>
     <g id="text_18">
      <!-- 3500 -->
      <g transform="translate(21.89 88.219674) scale(0.08 -0.08)">
       <use xlink:href="#DejaVuSans-33"/>
       <use xlink:href="#DejaVuSans-35" x="63.623047"/>
       <use xlink:href="#DejaVuSans-30" x="127.246094"/>
       <use xlink:href="#DejaVuSans-30" x="190.869141"/>
      </g>
     </g>
    </g>
    <g id="ytick_9">
     <g id="line2d_35">
      <g>
       <use xlink:href="#m9a8a7b6b83" x="45.75" y="52.648913" style="stroke: #000000; stroke-width: 0.8"/>
      </g>
     </g>
     <g id="line2d_36">
      <g>
       <use xlink:href="#md30ebcc828" x="448.585244" y="52.648913" style="stroke: #000000; stroke-width: 0.8"/>
      </g>
     </g>
     <g id="text_19">
      <!-- 4000 -->
      <g transform="translate(21.89 55.688288) scale(0.08 -0.08)">
       <defs>
        <path id="DejaVuSans-34" d="M 2419 4116 
L 825 1625 
L 2419 1625 
L 2419 4116 
z
M 2253 4666 
L 3047 4666 
L 3047 1625 
L 3713 1625 
L 3713 1100 
L 3047 1100 
L 3047 0 
L 2419 0 
L 2419 1100 
L 313 1100 
L 313 1709 
L 2253 4666 
z
" transform="scale(0.015625)"/>
       </defs>
       <use xlink:href="#DejaVuSans-34"/>
       <use xlink:href="#DejaVuSans-30" x="63.623047"/>
       <use xlink:href="#DejaVuSans-30" x="127.246094"/>
       <use xlink:href="#DejaVuSans-30" x="190.869141"/>
      </g>
     </g>
    </g>
    <g id="text_20">
     <!-- I (DN) -->
     <g transform="translate(16.22625 180.095) rotate(-90) scale(0.08 -0.08)">
      <defs>
       <path id="DejaVuSans-49" d="M 628 4666 
L 1259 4666 
L 1259 0 
L 628 0 
L 628 4666 
z
" transform="scale(0.015625)"/>
       <path id="DejaVuSans-28" d="M 1984 4856 
Q 1566 4138 1362 3434 
Q 1159 2731 1159 2009 
Q 1159 1288 1364 580 
Q 1569 -128 1984 -844 
L 1484 -844 
Q 1016 -109 783 600 
Q 550 1309 550 2009 
Q 550 2706 781 3412 
Q 1013 4119 1484 4856 
L 1984 4856 
z
" transform="scale(0.015625)"/>
       <path id="DejaVuSans-4e" d="M 628 4666 
L 1478 4666 
L 3547 763 
L 3547 4666 
L 4159 4666 
L 4159 0 
L 3309 0 
L 1241 3903 
L 1241 0 
L 628 0 
L 628 4666 
z
" transform="scale(0.015625)"/>
       <path id="DejaVuSans-29" d="M 513 4856 
L 1013 4856 
Q 1481 4119 1714 3412 
Q 1947 2706 1947 2009 
Q 1947 1309 1714 600 
Q 1481 -109 1013 -844 
L 513 -844 
Q 928 -128 1133 580 
Q 1338 1288 1338 2009 
Q 1338 2731 1133 3434 
Q 928 4138 513 4856 
z
" transform="scale(0.015625)"/>
      </defs>
      <use xlink:href="#DejaVuSans-49"/>
      <use xlink:href="#DejaVuSans-20" x="29.492188"/>
      <use xlink:href="#DejaVuSans-28" x="61.279297"/>
      <use xlink:href="#DejaVuSans-44" x="100.292969"/>
      <use xlink:href="#DejaVuSans-4e" x="177.294922"/>
      <use xlink:href="#DejaVuSans-29" x="252.099609"/>
     </g>
    </g>
   </g>
   <g id="line2d_37">
    <path d="M 45.75 313.290377 
L 45.946505 313.107018 
L 46.14301 313.266717 
L 46.732525 313.118848 
L 46.92903 313.225314 
L 47.125535 313.071529 
L 47.32204 313.154336 
L 47.518545 313.0597 
L 47.911555 313.325865 
L 48.10806 313.207569 
L 48.50107 313.219399 
L 49.28709 313.071529 
L 49.483595 313.172081 
L 49.6801 313.095188 
L 49.876605 313.278547 
L 50.07311 313.142507 
L 50.269615 313.272632 
L 50.46612 313.148421 
L 50.662625 313.272632 
L 51.055635 313.18391 
L 51.25214 313.272632 
L 51.841655 313.095188 
L 52.03816 313.296291 
L 53.21719 313.148421 
L 53.413695 313.302206 
L 53.6102 313.166166 
L 54.00321 313.254888 
L 54.199715 313.166166 
L 54.39622 313.284462 
L 54.592725 313.130677 
L 54.78923 313.260803 
L 54.985735 313.107018 
L 55.18224 313.237143 
L 55.57525 313.237143 
L 55.771755 313.290377 
L 55.96826 313.189825 
L 56.164765 313.237143 
L 56.36127 313.148421 
L 56.557775 313.314036 
L 56.75428 313.142507 
L 56.950785 313.254888 
L 57.736805 313.160251 
L 58.129815 313.260803 
L 58.32632 313.136592 
L 58.71933 313.231229 
L 59.308845 313.065614 
L 59.701855 313.19574 
L 60.094865 313.107018 
L 60.29137 313.296291 
L 60.880885 313.189825 
L 63.04244 313.148421 
L 63.82846 313.248973 
L 64.22147 313.148421 
L 64.417975 313.112933 
L 64.810985 313.296291 
L 65.00749 313.101103 
L 65.203995 313.225314 
L 65.597005 313.136592 
L 65.79351 313.231229 
L 65.990015 313.112933 
L 66.18652 313.231229 
L 66.383025 313.142507 
L 66.57953 313.266717 
L 66.776035 313.130677 
L 66.97254 313.290377 
L 67.169045 313.071529 
L 67.562055 313.19574 
L 67.75856 313.065614 
L 68.93759 313.248973 
L 69.134095 313.118848 
L 70.11662 313.207569 
L 70.313125 313.089274 
L 70.90264 313.148421 
L 71.099145 313.112933 
L 71.29565 313.207569 
L 72.278175 313.024211 
L 72.671185 313.172081 
L 73.2607 313.089274 
L 73.65371 313.237143 
L 73.850215 313.101103 
L 74.43973 313.243058 
L 75.029245 313.107018 
L 75.22575 313.166166 
L 75.61876 313.118848 
L 76.208275 313.107018 
L 76.40478 313.03604 
L 76.601285 313.101103 
L 76.79779 312.657493 
L 77.1908 312.527368 
L 77.387305 313.0597 
L 77.97682 313.201655 
L 78.173325 313.077444 
L 78.36983 313.219399 
L 78.566335 313.118848 
L 79.352354 313.18391 
L 79.548859 313.053785 
L 80.138374 313.18391 
L 80.531384 313.095188 
L 80.727889 313.154336 
L 80.924394 313.071529 
L 81.120899 313.130677 
L 81.513909 313.095188 
L 81.710414 313.177995 
L 82.103424 313.107018 
L 82.496434 313.231229 
L 83.085949 313.130677 
L 83.282454 313.089274 
L 83.478959 313.177995 
L 83.675464 313.077444 
L 84.068474 313.225314 
L 84.461484 313.012381 
L 84.657989 313.154336 
L 84.854494 313.041955 
L 85.050999 313.189825 
L 85.444009 313.0597 
L 86.033524 313.130677 
L 86.426534 312.953233 
L 86.623039 313.101103 
L 86.819544 313.065614 
L 87.016049 313.172081 
L 87.409059 313.112933 
L 87.605564 313.148421 
L 87.802069 313.024211 
L 89.570614 313.118848 
L 89.963624 313.083359 
L 90.160129 313.18391 
L 91.339159 313.071529 
L 91.928674 313.071529 
L 92.125179 312.982807 
L 92.518189 313.024211 
L 92.714694 313.000552 
L 92.911199 313.089274 
L 93.107704 312.91183 
L 93.697219 313.012381 
L 93.893724 312.88817 
L 94.286734 312.970978 
L 94.483239 312.787619 
L 94.876249 312.976892 
L 95.072754 312.970978 
L 95.269259 313.124762 
L 95.465764 312.91183 
L 95.662269 312.894085 
L 96.055279 312.45639 
L 96.841299 313.012381 
L 97.823824 313.172081 
L 98.020329 312.935489 
L 98.216834 313.101103 
L 99.002854 312.947318 
L 99.395864 312.17248 
L 99.985379 312.894085 
L 100.181884 312.905915 
L 100.378389 313.083359 
L 100.771399 313.077444 
L 101.164409 313.160251 
L 101.360914 312.976892 
L 101.557419 313.089274 
L 101.753924 313.012381 
L 101.950429 313.0597 
L 102.146934 312.988722 
L 102.539944 313.077444 
L 103.129459 313.124762 
L 103.522469 312.994637 
L 103.718974 312.988722 
L 103.915479 313.107018 
L 104.111984 313.041955 
L 104.308489 313.136592 
L 104.504994 312.994637 
L 104.898004 313.107018 
L 105.291014 313.018296 
L 105.684024 312.982807 
L 106.077034 313.065614 
L 106.470044 312.88817 
L 106.666549 313.071529 
L 106.863054 312.91183 
L 107.059559 312.994637 
L 107.256064 312.852682 
L 107.452569 313.089274 
L 108.042084 312.970978 
L 108.238589 313.03604 
L 108.435094 312.7403 
L 108.828104 313.071529 
L 109.024609 312.88817 
L 109.810629 312.811278 
L 110.007134 312.669323 
L 110.203639 312.840852 
L 110.400144 312.296691 
L 110.596649 311.237942 
L 110.989659 305.3054 
L 111.186164 306.61257 
L 111.382669 310.70561 
L 111.775679 312.627919 
L 111.972184 312.834937 
L 113.937234 312.852682 
L 114.133739 312.852682 
L 114.330244 312.7403 
L 114.723254 312.852682 
L 114.919759 312.769874 
L 115.509274 312.941404 
L 116.295294 312.965063 
L 116.491799 312.852682 
L 116.688304 312.941404 
L 117.670829 312.657493 
L 117.867334 312.88817 
L 118.260344 312.539197 
L 118.456849 312.426816 
L 118.849859 312.610175 
L 119.046364 312.491879 
L 119.242869 312.545112 
L 119.635879 312.947318 
L 120.225394 312.923659 
L 120.814909 313.101103 
L 121.011414 312.929574 
L 121.207919 312.917744 
L 121.404424 313.089274 
L 121.600929 313.012381 
L 121.797434 313.101103 
L 121.993939 312.965063 
L 122.190444 313.053785 
L 122.386949 312.994637 
L 122.583454 313.0597 
L 122.976464 313.006466 
L 125.531029 312.935489 
L 125.727534 312.88817 
L 125.924039 313.024211 
L 126.120544 312.941404 
L 126.317049 312.988722 
L 126.710059 312.042354 
L 127.103069 308.913427 
L 127.299574 309.351122 
L 127.692584 312.207969 
L 128.085594 312.982807 
L 128.282099 312.994637 
L 128.478604 312.799448 
L 128.871614 312.959148 
L 129.068119 312.823108 
L 129.264624 313.000552 
L 130.050644 312.775789 
L 130.443654 312.959148 
L 130.640159 312.7403 
L 130.836664 312.799448 
L 131.033169 312.734386 
L 131.229674 312.799448 
L 131.622684 312.586516 
L 132.015694 312.190224 
L 132.212199 310.894884 
L 132.408704 305.944198 
L 132.605209 290.754998 
L 132.801714 264.386831 
L 132.998219 262.97911 
L 133.391229 304.29397 
L 133.784239 311.350323 
L 133.980744 312.213883 
L 134.373754 312.574686 
L 134.570259 312.562857 
L 134.766764 312.716641 
L 134.963269 312.645664 
L 135.945794 312.953233 
L 136.142299 312.823108 
L 136.338804 312.864511 
L 136.535309 312.669323 
L 136.928319 312.840852 
L 137.321329 312.870426 
L 137.517834 312.840852 
L 137.910844 312.273031 
L 138.107349 312.302605 
L 138.303854 312.154736 
L 138.500359 311.770274 
L 138.696864 311.941803 
L 138.893369 312.491879 
L 139.482884 312.91183 
L 139.875894 312.829022 
L 140.072399 312.905915 
L 140.268904 312.574686 
L 140.465409 312.698897 
L 140.661914 312.438646 
L 141.054924 312.728471 
L 141.251429 312.876341 
L 141.644439 312.716641 
L 141.840944 312.379498 
L 142.037449 312.273031 
L 142.233954 312.775789 
L 142.430459 312.734386 
L 142.626964 312.882256 
L 143.019974 312.692982 
L 143.412984 311.734785 
L 144.199004 312.894085 
L 144.788519 312.746215 
L 145.378033 312.793534 
L 145.771043 312.438646 
L 145.967548 312.420901 
L 146.164053 312.515538 
L 146.360558 312.048269 
L 146.557063 310.71744 
L 146.753568 310.403955 
L 147.343083 312.450475 
L 147.539588 312.480049 
L 147.932598 311.166964 
L 148.129103 311.379897 
L 148.325608 311.900399 
L 148.718618 311.646063 
L 148.915123 311.515937 
L 149.111628 310.782503 
L 149.308133 310.918543 
L 149.504638 311.788018 
L 150.094153 312.379498 
L 150.290658 312.302605 
L 150.683668 312.539197 
L 150.880173 312.367668 
L 151.076678 312.355839 
L 151.273183 312.545112 
L 151.862698 311.87674 
L 152.059203 309.930772 
L 152.255708 301.79201 
L 152.452213 275.820135 
L 152.648718 265.557961 
L 153.238233 308.109014 
L 153.434738 310.007664 
L 153.631243 310.054982 
L 153.827748 310.244256 
L 154.220758 311.882655 
L 154.417263 312.414987 
L 154.613768 312.527368 
L 155.203283 312.432731 
L 155.399788 312.438646 
L 155.596293 311.989121 
L 156.185808 308.937086 
L 156.382313 309.605458 
L 156.578818 306.713122 
L 156.775323 283.609923 
L 157.168333 72.15 
L 157.364838 79.531667 
L 157.757848 279.658838 
L 158.150858 308.860193 
L 158.347363 311.054583 
L 158.740373 312.066014 
L 159.133383 312.060099 
L 159.526393 312.385413 
L 159.722898 312.284861 
L 159.919403 312.527368 
L 160.115908 312.426816 
L 160.312413 312.645664 
L 161.098433 312.61609 
L 161.294938 312.76396 
L 161.884453 312.633834 
L 162.080958 312.728471 
L 162.473968 312.639749 
L 162.670473 312.675238 
L 162.866978 312.574686 
L 163.063483 312.651579 
L 163.456493 312.296691 
L 163.849503 312.610175 
L 164.832028 312.687067 
L 165.028533 312.32035 
L 165.225038 312.60426 
L 165.421543 312.562857 
L 165.814553 312.75213 
L 166.207563 312.142906 
L 166.404068 311.178794 
L 166.600573 311.16105 
L 166.993583 312.551027 
L 167.779603 312.769874 
L 168.369118 312.586516 
L 168.565623 311.805762 
L 168.958633 308.061696 
L 169.155138 307.553023 
L 169.548148 304.660687 
L 170.137663 312.397242 
L 170.727178 312.669323 
L 170.923683 312.598345 
L 171.120188 312.852682 
L 171.316693 312.651579 
L 171.709703 312.734386 
L 171.906208 312.580601 
L 172.102713 312.273031 
L 172.299218 310.823906 
L 172.495723 304.631113 
L 172.692228 291.488433 
L 172.888733 289.152088 
L 173.478248 310.226512 
L 173.674753 311.977292 
L 174.067763 312.539197 
L 175.246793 312.692982 
L 175.443298 312.864511 
L 175.836308 312.864511 
L 176.032813 312.515538 
L 176.425823 311.190624 
L 176.818833 311.86491 
L 177.015338 311.622404 
L 177.408348 307.405153 
L 177.604853 307.677234 
L 177.801358 307.085754 
L 177.997863 305.512418 
L 178.194368 305.713521 
L 178.390873 303.294369 
L 178.587378 298.195814 
L 178.783883 300.206845 
L 178.980388 308.038037 
L 179.176893 308.824705 
L 179.373398 304.518732 
L 179.569903 303.318028 
L 179.962913 311.184709 
L 180.355923 312.509623 
L 180.748933 312.545112 
L 180.945438 312.326265 
L 181.141943 311.326664 
L 181.534953 306.127557 
L 182.124468 311.87674 
L 182.320973 312.278946 
L 182.517478 312.136991 
L 182.713983 312.533283 
L 182.910488 312.610175 
L 183.106993 312.515538 
L 183.303498 312.592431 
L 183.500003 312.196139 
L 183.893013 312.190224 
L 184.089518 311.675637 
L 184.286023 307.257283 
L 184.679033 277.789762 
L 184.875538 283.751878 
L 185.072043 302.809356 
L 185.268548 308.688664 
L 185.465053 308.452072 
L 185.858063 288.536949 
L 186.054568 292.399312 
L 186.251073 305.796328 
L 186.447578 309.883453 
L 186.644083 311.545511 
L 186.840588 312.148821 
L 187.037093 312.148821 
L 187.233598 311.711126 
L 187.430103 311.675637 
L 187.626608 312.219798 
L 187.823113 312.148821 
L 188.019618 312.284861 
L 188.216123 312.196139 
L 188.412628 311.717041 
L 188.609133 307.393324 
L 188.805638 284.928923 
L 189.002143 235.09084 
L 189.198648 224.556586 
L 189.591658 271.857221 
L 189.788163 253.503604 
L 189.984668 259.075343 
L 190.377678 305.447355 
L 190.574183 309.339292 
L 190.770688 309.362951 
L 190.967193 299.550302 
L 191.163698 276.97352 
L 191.360203 275.571713 
L 191.753213 306.482445 
L 192.146223 311.551426 
L 192.539233 312.409072 
L 192.735738 312.32035 
L 193.128748 312.60426 
L 194.111273 312.574686 
L 194.307778 312.18431 
L 194.504283 309.936686 
L 194.700788 306.234023 
L 194.897293 305.926454 
L 195.290303 311.598745 
L 195.486808 312.060099 
L 195.683313 312.083758 
L 195.879818 310.676036 
L 196.076323 300.48484 
L 196.469333 252.273326 
L 197.058848 308.22731 
L 197.255353 311.190624 
L 197.451858 312.213883 
L 197.844868 312.414987 
L 198.237878 312.515538 
L 198.434383 312.45639 
L 198.630888 312.61609 
L 199.416908 312.521453 
L 199.613413 312.728471 
L 200.006423 312.592431 
L 200.399433 312.722556 
L 201.578463 312.562857 
L 201.774968 312.367668 
L 201.971473 311.912229 
L 202.364483 309.865709 
L 202.560988 309.877539 
L 202.757493 305.648458 
L 202.953998 275.128104 
L 203.150503 202.766472 
L 203.347008 188.890357 
L 203.740018 250.841945 
L 203.936523 265.628939 
L 204.133028 294.806635 
L 204.329533 306.914225 
L 204.526038 309.11453 
L 204.722543 308.854279 
L 205.508563 312.278946 
L 206.098078 312.574686 
L 206.687593 312.438646 
L 206.884098 312.515538 
L 207.080603 312.379498 
L 207.277108 311.782103 
L 207.473613 307.588512 
L 207.866623 272.200279 
L 208.063128 267.598566 
L 208.456138 287.93364 
L 208.652643 304.938683 
L 208.849148 310.179193 
L 209.242158 312.391327 
L 209.635168 312.610175 
L 209.831673 312.391327 
L 210.028178 312.645664 
L 210.224683 312.219798 
L 210.421188 310.70561 
L 210.617693 300.248248 
L 210.814198 277.795677 
L 211.010702 274.944745 
L 211.403712 307.452472 
L 211.600217 310.84165 
L 211.993227 312.474135 
L 212.189732 312.669323 
L 212.975752 312.598345 
L 213.172257 312.734386 
L 213.368762 312.474135 
L 213.565267 312.580601 
L 213.761772 312.485964 
L 213.958277 312.675238 
L 214.154782 312.645664 
L 214.351287 312.76396 
L 214.547792 312.651579 
L 215.530317 312.805363 
L 220.246437 312.710726 
L 220.442942 312.45639 
L 220.639447 311.7407 
L 220.835952 303.11101 
L 221.032457 273.436472 
L 221.228962 261.731087 
L 221.818477 310.025408 
L 222.014982 311.912229 
L 222.211487 312.462305 
L 222.407992 312.598345 
L 222.604497 312.592431 
L 222.801002 312.746215 
L 222.997507 312.633834 
L 223.194012 312.704812 
L 223.390517 312.509623 
L 223.587022 312.710726 
L 223.783527 312.586516 
L 223.980032 312.687067 
L 224.373042 312.344009 
L 224.569547 311.858996 
L 224.766052 308.043951 
L 224.962557 276.435274 
L 225.159062 207.805879 
L 225.355567 194.148612 
L 225.748577 298.491553 
L 225.945082 307.576682 
L 226.141587 311.279346 
L 226.338092 312.071928 
L 226.731102 312.491879 
L 227.517122 312.76396 
L 227.910132 312.497794 
L 228.303142 312.775789 
L 228.499647 312.622005 
L 228.892657 312.645664 
L 229.089162 311.959547 
L 229.285667 310.321148 
L 229.678677 304.607454 
L 229.875182 304.506902 
L 230.268192 310.681951 
L 230.464697 308.256884 
L 230.661202 298.243132 
L 231.054212 291.133545 
L 231.250717 288.247124 
L 231.447222 291.86698 
L 231.643727 303.359432 
L 231.840232 304.826302 
L 232.036737 304.28214 
L 232.429747 311.356238 
L 232.626252 311.722955 
L 232.822757 311.847166 
L 233.215767 312.551027 
L 233.608777 312.349924 
L 233.805282 310.155534 
L 234.001787 294.428088 
L 234.198292 269.769297 
L 234.394797 269.260625 
L 234.787807 308.653175 
L 234.984312 311.456789 
L 235.180817 312.278946 
L 235.573827 312.580601 
L 235.770332 312.432731 
L 235.966837 312.533283 
L 236.163342 312.355839 
L 236.359847 311.581 
L 236.752857 297.627993 
L 236.949362 299.059374 
L 237.145867 307.842848 
L 237.342372 311.557341 
L 237.735382 312.657493 
L 237.931887 312.681152 
L 238.128392 312.840852 
L 238.324897 312.592431 
L 238.717907 312.817193 
L 238.914412 312.645664 
L 239.307422 312.687067 
L 239.503927 312.929574 
L 240.093442 312.663408 
L 241.075967 312.823108 
L 241.272472 312.669323 
L 241.468977 312.231628 
L 241.861987 307.700893 
L 242.058492 308.457987 
L 242.254997 311.036839 
L 242.451502 311.764359 
L 242.648007 309.623202 
L 242.844512 284.195488 
L 243.041017 209.740018 
L 243.237522 184.2709 
L 243.630532 296.350397 
L 243.827037 308.558539 
L 244.023542 311.397641 
L 244.220047 312.060099 
L 244.613057 312.326265 
L 245.006067 312.610175 
L 245.399077 312.480049 
L 245.595582 312.669323 
L 245.792087 312.474135 
L 245.988592 311.912229 
L 246.578107 299.745491 
L 246.971117 311.622404 
L 247.167622 312.610175 
L 247.757137 311.758444 
L 248.150147 312.627919 
L 248.739662 312.710726 
L 248.936167 312.811278 
L 249.722187 312.60426 
L 249.918692 312.775789 
L 250.901217 312.403157 
L 251.097722 310.912628 
L 251.294227 308.463902 
L 251.490732 307.996633 
L 251.883742 311.498193 
L 252.080247 311.634233 
L 252.276752 311.308919 
L 252.473257 305.44144 
L 252.669762 246.252063 
L 252.866267 131.676521 
L 253.062772 115.682909 
L 253.455782 291.872895 
L 253.652287 306.742696 
L 253.848792 310.847565 
L 254.045297 311.853081 
L 254.241802 312.071928 
L 254.438307 312.101502 
L 254.831317 312.480049 
L 255.224327 312.503709 
L 255.420832 312.355839 
L 255.617337 311.935888 
L 256.010347 302.513616 
L 256.206852 304.353118 
L 256.599862 312.000951 
L 256.796367 312.391327 
L 256.992872 312.391327 
L 257.189377 311.332579 
L 257.385882 300.129952 
L 257.582387 274.376924 
L 257.778892 269.432154 
L 258.171902 308.398839 
L 258.368407 311.764359 
L 258.564912 312.432731 
L 259.154427 312.704812 
L 259.350932 312.639749 
L 259.743942 312.758045 
L 260.333457 312.858596 
L 260.529962 312.710726 
L 260.726467 312.846767 
L 261.512487 312.728471 
L 261.708992 313.006466 
L 261.905497 312.852682 
L 262.888022 312.905915 
L 263.084527 312.769874 
L 263.281032 312.976892 
L 263.477537 312.852682 
L 263.870547 312.923659 
L 264.067052 312.852682 
L 264.263557 312.935489 
L 264.460062 312.817193 
L 264.853072 313.024211 
L 265.639092 312.687067 
L 265.835597 312.793534 
L 266.818122 312.574686 
L 267.014627 311.699296 
L 267.407637 289.932842 
L 267.604142 289.702164 
L 267.997152 311.072328 
L 268.193657 312.32035 
L 268.390162 312.610175 
L 268.586667 312.438646 
L 268.783172 311.267516 
L 268.979677 300.124038 
L 269.176182 280.327211 
L 269.372687 278.191969 
L 269.765697 310.28566 
L 269.962202 312.361753 
L 270.551717 312.60426 
L 270.748222 312.60426 
L 271.141232 312.781704 
L 272.123757 312.775789 
L 272.320262 312.633834 
L 272.516767 311.036839 
L 272.909777 292.807433 
L 273.106282 297.208042 
L 273.302787 308.51122 
L 273.499292 312.054184 
L 273.892302 312.799448 
L 274.481817 312.829022 
L 274.874827 312.663408 
L 275.071332 312.75213 
L 275.267837 312.657493 
L 275.464342 312.225713 
L 275.660847 307.765956 
L 275.857352 298.207643 
L 276.053857 296.445034 
L 276.446867 311.243857 
L 276.643372 311.7407 
L 276.839877 304.015974 
L 277.036381 280.315381 
L 277.232886 271.561481 
L 277.625896 307.777785 
L 277.822401 311.953632 
L 278.018906 312.450475 
L 278.804926 312.858596 
L 279.197936 312.7403 
L 279.394441 312.698897 
L 279.590946 312.793534 
L 279.787451 312.687067 
L 279.983956 311.776188 
L 280.180461 309.96626 
L 280.376966 309.297888 
L 280.769976 312.367668 
L 280.966481 312.592431 
L 281.359491 312.249372 
L 281.555996 307.458386 
L 281.949006 240.804534 
L 282.145511 250.345102 
L 282.342016 291.86698 
L 282.538521 300.762836 
L 282.735026 280.451421 
L 282.931531 271.957772 
L 283.324541 308.055781 
L 283.521046 311.829422 
L 283.717551 312.403157 
L 284.307066 312.551027 
L 284.503571 312.462305 
L 284.700076 310.297489 
L 285.093086 283.225461 
L 285.289591 288.791286 
L 285.486096 305.74901 
L 285.682601 311.569171 
L 285.879106 312.355839 
L 286.075611 311.953632 
L 286.468621 304.471414 
L 286.665126 306.736781 
L 286.861631 310.954032 
L 287.058136 312.46822 
L 287.451146 312.698897 
L 287.647651 312.556942 
L 287.844156 310.516337 
L 288.237166 290.524321 
L 288.433671 295.551899 
L 288.630176 308.150418 
L 288.826681 312.101502 
L 289.219691 312.817193 
L 290.005711 312.592431 
L 290.202216 309.788817 
L 290.398721 303.25888 
L 290.595226 301.916221 
L 290.988236 311.829422 
L 291.184741 312.527368 
L 291.381246 312.787619 
L 291.774256 312.864511 
L 291.970761 312.586516 
L 292.363771 312.746215 
L 292.560276 311.929973 
L 292.953286 301.123638 
L 293.149791 302.969055 
L 293.346296 309.173678 
L 293.542801 307.925655 
L 293.935811 274.016122 
L 294.132316 284.857945 
L 294.328821 304.802642 
L 294.525326 311.131476 
L 295.114841 312.840852 
L 295.507851 312.562857 
L 295.704356 310.433529 
L 296.097366 291.648133 
L 296.293871 297.296764 
L 296.490376 308.36335 
L 296.686881 311.166964 
L 297.079891 299.378773 
L 297.276396 301.845244 
L 297.472901 309.351122 
L 297.669406 312.326265 
L 298.062416 312.793534 
L 298.651931 312.627919 
L 298.848436 311.344408 
L 299.044941 308.576283 
L 299.241446 307.9434 
L 299.634456 312.480049 
L 300.027466 312.746215 
L 300.223971 312.834937 
L 300.420476 312.758045 
L 300.813486 312.953233 
L 301.009991 312.775789 
L 301.206496 312.76396 
L 301.599506 309.09087 
L 301.796011 309.1027 
L 302.189021 312.633834 
L 302.385526 312.769874 
L 302.582031 312.515538 
L 302.778536 308.097184 
L 302.975041 299.366943 
L 303.171546 298.136666 
L 303.564556 311.841251 
L 303.761061 312.769874 
L 303.957566 312.746215 
L 304.350576 312.976892 
L 304.547081 312.846767 
L 304.743586 312.9 
L 304.940091 312.7403 
L 305.333101 312.846767 
L 305.529606 312.539197 
L 305.922616 303.927252 
L 306.119121 303.968656 
L 306.512131 312.273031 
L 306.708636 312.734386 
L 306.905141 312.119247 
L 307.298151 301.679629 
L 307.494656 302.353916 
L 307.691161 309.635032 
L 307.887666 312.533283 
L 308.084171 312.882256 
L 308.477181 312.947318 
L 309.066696 312.76396 
L 309.459706 312.947318 
L 309.656211 312.722556 
L 309.852716 311.521852 
L 310.049221 307.896081 
L 310.245726 307.062095 
L 310.638736 312.267117 
L 310.835241 311.308919 
L 311.031746 307.996633 
L 311.228251 306.884651 
L 311.621261 312.148821 
L 311.817766 312.894085 
L 312.210776 312.929574 
L 312.407281 313.012381 
L 312.800291 312.91183 
L 313.193301 313.0597 
L 313.389806 312.870426 
L 314.372331 313.000552 
L 315.158351 312.970978 
L 315.551361 313.012381 
L 315.747866 312.870426 
L 315.944371 313.065614 
L 316.337381 312.959148 
L 316.533886 313.071529 
L 317.123401 312.864511 
L 317.319906 313.089274 
L 317.712916 312.905915 
L 318.105926 313.154336 
L 318.302431 313.148421 
L 318.498936 312.976892 
L 318.695441 313.071529 
L 318.891946 312.929574 
L 319.088451 313.012381 
L 319.284956 312.935489 
L 319.677966 313.130677 
L 319.874471 313.030126 
L 320.267481 313.065614 
L 320.463986 313.03604 
L 320.660491 312.882256 
L 321.643016 313.107018 
L 322.036026 312.965063 
L 322.232531 313.124762 
L 322.429036 313.006466 
L 323.018551 313.112933 
L 323.411561 312.976892 
L 323.608066 312.953233 
L 323.804571 313.107018 
L 324.197581 312.876341 
L 324.394086 312.982807 
L 324.590591 312.941404 
L 324.787096 312.60426 
L 324.983601 309.53448 
L 325.376611 268.420723 
L 325.573116 276.82565 
L 325.769621 301.821584 
L 325.966126 311.421301 
L 326.162631 312.568771 
L 326.555641 312.941404 
L 326.948651 312.834937 
L 327.341661 313.04787 
L 327.538166 312.829022 
L 327.734671 312.994637 
L 327.931176 312.870426 
L 329.110206 312.976892 
L 329.306711 313.142507 
L 329.699721 312.953233 
L 329.896226 313.112933 
L 330.092731 313.006466 
L 330.289236 313.107018 
L 330.682246 312.923659 
L 330.878751 313.053785 
L 331.664771 312.929574 
L 331.861276 313.112933 
L 332.057781 312.959148 
L 332.254286 313.095188 
L 332.843801 313.041955 
L 333.236811 313.101103 
L 333.433316 312.976892 
L 333.629821 313.095188 
L 333.826326 312.982807 
L 334.219336 313.112933 
L 334.612346 313.095188 
L 334.808851 312.965063 
L 335.005356 313.04787 
L 335.201861 312.994637 
L 335.594871 313.166166 
L 335.987881 313.04787 
L 336.380891 313.118848 
L 336.773901 313.000552 
L 337.166911 313.130677 
L 337.363416 312.988722 
L 337.756426 313.071529 
L 337.952931 313.136592 
L 338.542446 312.970978 
L 338.738951 313.19574 
L 339.131961 313.071529 
L 339.328466 313.118848 
L 339.721476 313.000552 
L 339.917981 313.177995 
L 340.900506 312.9 
L 341.293516 313.053785 
L 341.490021 312.923659 
L 341.686526 313.053785 
L 342.079536 313.077444 
L 342.276041 312.018695 
L 342.669051 301.957625 
L 342.865556 303.767553 
L 343.06206 310.267915 
L 343.258565 312.645664 
L 343.651575 313.024211 
L 344.437595 313.095188 
L 344.6341 312.965063 
L 344.830605 313.112933 
L 345.02711 313.000552 
L 345.42012 313.04787 
L 346.99216 313.101103 
L 347.188665 313.041955 
L 347.581675 313.130677 
L 352.297795 313.0597 
L 352.4943 313.160251 
L 352.690805 313.053785 
L 352.88731 313.177995 
L 353.67333 312.976892 
L 354.262845 313.107018 
L 355.048865 312.994637 
L 355.24537 313.071529 
L 355.441875 312.207969 
L 355.834885 304.761239 
L 356.03139 306.370064 
L 356.227895 311.314834 
L 356.4244 312.622005 
L 356.81741 313.030126 
L 357.013915 312.905915 
L 357.99644 313.107018 
L 358.192945 312.935489 
L 358.78246 313.207569 
L 359.17547 313.053785 
L 359.371975 312.970978 
L 359.764985 313.04787 
L 359.96149 312.988722 
L 360.157995 313.154336 
L 360.3545 312.959148 
L 360.551005 313.095188 
L 360.944015 312.988722 
L 361.14052 312.225713 
L 361.337025 310.40987 
L 361.53353 309.96626 
L 361.92654 312.858596 
L 362.123045 312.970978 
L 362.31955 312.941404 
L 362.516055 313.177995 
L 362.71256 313.0597 
L 363.89159 313.154336 
L 364.088095 313.030126 
L 364.2846 313.172081 
L 364.67761 312.935489 
L 365.07062 313.089274 
L 366.64266 313.012381 
L 367.03567 313.112933 
L 367.42868 312.970978 
L 367.625185 313.154336 
L 368.018195 313.006466 
L 368.2147 313.166166 
L 368.411205 313.024211 
L 369.197225 313.012381 
L 369.590235 312.976892 
L 369.983245 313.19574 
L 370.17975 313.041955 
L 370.57276 313.124762 
L 370.769265 313.112933 
L 370.96577 312.929574 
L 371.35878 313.018296 
L 371.555285 313.012381 
L 371.75179 313.160251 
L 372.1448 312.988722 
L 372.93082 313.071529 
L 373.127325 312.982807 
L 373.520335 313.077444 
L 373.913345 313.030126 
L 374.306355 313.071529 
L 374.699365 312.929574 
L 374.89587 313.024211 
L 375.485385 312.817193 
L 375.68189 311.439045 
L 376.0749 288.128828 
L 376.271405 291.050738 
L 376.46791 305.861391 
L 376.664415 311.823507 
L 376.86092 312.515538 
L 377.057425 312.76396 
L 377.450435 312.823108 
L 377.64694 312.988722 
L 378.629465 312.876341 
L 378.82597 313.000552 
L 379.415485 312.858596 
L 379.808495 313.041955 
L 380.201505 313.006466 
L 380.39801 313.077444 
L 380.594515 312.988722 
L 380.79102 313.065614 
L 380.987525 312.923659 
L 381.18403 313.083359 
L 381.380535 313.024211 
L 381.57704 313.101103 
L 381.773545 313.012381 
L 381.97005 313.112933 
L 382.166555 313.03604 
L 382.36306 313.089274 
L 382.559565 312.988722 
L 383.14908 313.154336 
L 383.738595 312.976892 
L 383.9351 313.130677 
L 384.131605 313.089274 
L 384.32811 313.225314 
L 384.72112 313.065614 
L 385.11413 313.124762 
L 386.096655 313.177995 
L 386.489665 313.136592 
L 387.275685 313.266717 
L 387.668695 313.172081 
L 388.65122 313.189825 
L 390.026755 313.231229 
L 390.419765 313.112933 
L 390.812775 313.243058 
L 391.00928 313.243058 
L 391.205785 313.130677 
L 391.598795 313.213484 
L 391.7953 313.101103 
L 392.18831 313.219399 
L 392.777825 313.248973 
L 392.97433 313.177995 
L 393.170835 313.272632 
L 393.36734 313.166166 
L 393.956855 313.237143 
L 394.15336 313.148421 
L 394.54637 313.160251 
L 398.279965 313.172081 
L 398.47647 313.385013 
L 398.672975 313.160251 
L 399.458995 313.319951 
L 399.852005 313.172081 
L 400.04851 313.290377 
L 400.83453 313.18391 
L 401.031035 313.319951 
L 401.424045 313.201655 
L 401.817055 313.231229 
L 402.210065 313.177995 
L 402.603075 313.254888 
L 402.79958 313.136592 
L 403.5856 313.337695 
L 403.782105 313.177995 
L 403.97861 313.243058 
L 404.175115 313.177995 
L 404.37162 313.260803 
L 404.568125 313.118848 
L 405.15764 313.231229 
L 405.55065 313.19574 
L 406.140165 313.337695 
L 406.33667 313.142507 
L 406.533175 313.284462 
L 406.72968 313.083359 
L 406.926185 313.201655 
L 407.5157 313.18391 
L 408.105215 313.34361 
L 408.30172 313.166166 
L 410.266769 313.355439 
L 410.463274 313.154336 
L 411.838809 313.260803 
L 412.624829 313.266717 
L 412.821334 313.124762 
L 413.214344 313.272632 
L 413.607354 313.160251 
L 414.000364 313.254888 
L 414.393374 313.177995 
L 414.982889 313.231229 
L 415.375899 313.142507 
L 416.161919 313.207569 
L 416.947939 313.19574 
L 417.144444 313.177995 
L 417.340949 313.272632 
L 417.733959 313.101103 
L 417.930464 313.201655 
L 418.519979 313.213484 
L 419.305999 313.319951 
L 419.895514 313.148421 
L 420.681534 313.284462 
L 421.467554 313.231229 
L 421.860564 313.237143 
L 422.057069 313.207569 
L 422.253574 313.308121 
L 422.450079 313.160251 
L 422.646584 313.284462 
L 423.236099 313.213484 
L 423.432604 313.266717 
L 423.629109 313.189825 
L 424.022119 313.278547 
L 424.218624 313.290377 
L 424.611634 313.118848 
L 425.201149 313.225314 
L 428.541734 313.225314 
L 428.934744 313.201655 
L 429.131249 313.130677 
L 429.720764 313.33178 
L 430.113774 313.219399 
L 430.506784 313.308121 
L 430.899794 313.213484 
L 432.864844 313.219399 
L 433.257854 313.154336 
L 434.043874 313.219399 
L 435.812419 313.089274 
L 436.008924 313.296291 
L 436.205429 313.089274 
L 436.401934 313.172081 
L 436.598439 313.0597 
L 436.991449 313.272632 
L 437.384459 313.18391 
L 437.580964 313.278547 
L 438.563489 313.19574 
L 440.135529 313.130677 
L 440.528539 313.248973 
L 441.314559 313.172081 
L 441.511064 313.107018 
L 441.707569 313.272632 
L 442.100579 313.107018 
L 442.493589 313.231229 
L 442.690094 313.225314 
L 442.886599 313.0597 
L 443.083104 313.201655 
L 443.279609 313.083359 
L 443.476114 313.219399 
L 443.672619 313.118848 
L 444.065629 313.231229 
L 444.655144 313.18391 
L 447.602719 313.278547 
L 447.799224 313.136592 
L 447.995729 313.284462 
L 447.995729 313.284462 
" clip-path="url(#p9f66f03bf6)" style="fill: none; stroke: #1f77b4; stroke-width: 1.5; stroke-linecap: square"/>
   </g>
   <g id="line2d_38">
    <defs>
     <path id="m756ec8b5b2" d="M 0 -3 
L -0.673542 -0.927051 
L -2.85317 -0.927051 
L -1.089814 0.354102 
L -1.763356 2.427051 
L -0 1.145898 
L 1.763356 2.427051 
L 1.089814 0.354102 
L 2.85317 -0.927051 
L 0.673542 -0.927051 
z
" style="stroke: #000000; stroke-linejoin: bevel"/>
    </defs>
    <g clip-path="url(#p9f66f03bf6)">
     <use xlink:href="#m756ec8b5b2" x="110.989659" y="299.5274" style="stroke: #000000; stroke-linejoin: bevel"/>
     <use xlink:href="#m756ec8b5b2" x="132.998219" y="257.20111" style="stroke: #000000; stroke-linejoin: bevel"/>
     <use xlink:href="#m756ec8b5b2" x="152.648718" y="259.779961" style="stroke: #000000; stroke-linejoin: bevel"/>
     <use xlink:href="#m756ec8b5b2" x="157.168333" y="66.372" style="stroke: #000000; stroke-linejoin: bevel"/>
     <use xlink:href="#m756ec8b5b2" x="169.548148" y="298.882687" style="stroke: #000000; stroke-linejoin: bevel"/>
     <use xlink:href="#m756ec8b5b2" x="172.888733" y="283.374088" style="stroke: #000000; stroke-linejoin: bevel"/>
     <use xlink:href="#m756ec8b5b2" x="178.587378" y="292.417814" style="stroke: #000000; stroke-linejoin: bevel"/>
     <use xlink:href="#m756ec8b5b2" x="181.534953" y="300.349557" style="stroke: #000000; stroke-linejoin: bevel"/>
     <use xlink:href="#m756ec8b5b2" x="184.679033" y="272.011762" style="stroke: #000000; stroke-linejoin: bevel"/>
     <use xlink:href="#m756ec8b5b2" x="189.198648" y="218.778586" style="stroke: #000000; stroke-linejoin: bevel"/>
     <use xlink:href="#m756ec8b5b2" x="191.360203" y="269.793713" style="stroke: #000000; stroke-linejoin: bevel"/>
     <use xlink:href="#m756ec8b5b2" x="196.469333" y="246.495326" style="stroke: #000000; stroke-linejoin: bevel"/>
     <use xlink:href="#m756ec8b5b2" x="203.347008" y="183.112357" style="stroke: #000000; stroke-linejoin: bevel"/>
     <use xlink:href="#m756ec8b5b2" x="208.063128" y="261.820566" style="stroke: #000000; stroke-linejoin: bevel"/>
     <use xlink:href="#m756ec8b5b2" x="211.010702" y="269.166745" style="stroke: #000000; stroke-linejoin: bevel"/>
     <use xlink:href="#m756ec8b5b2" x="221.228962" y="255.953087" style="stroke: #000000; stroke-linejoin: bevel"/>
     <use xlink:href="#m756ec8b5b2" x="225.355567" y="188.370612" style="stroke: #000000; stroke-linejoin: bevel"/>
     <use xlink:href="#m756ec8b5b2" x="231.250717" y="282.469124" style="stroke: #000000; stroke-linejoin: bevel"/>
     <use xlink:href="#m756ec8b5b2" x="234.394797" y="263.482625" style="stroke: #000000; stroke-linejoin: bevel"/>
     <use xlink:href="#m756ec8b5b2" x="236.752857" y="291.849993" style="stroke: #000000; stroke-linejoin: bevel"/>
     <use xlink:href="#m756ec8b5b2" x="243.237522" y="178.4929" style="stroke: #000000; stroke-linejoin: bevel"/>
     <use xlink:href="#m756ec8b5b2" x="246.578107" y="293.967491" style="stroke: #000000; stroke-linejoin: bevel"/>
     <use xlink:href="#m756ec8b5b2" x="253.062772" y="109.904909" style="stroke: #000000; stroke-linejoin: bevel"/>
     <use xlink:href="#m756ec8b5b2" x="257.778892" y="263.654154" style="stroke: #000000; stroke-linejoin: bevel"/>
     <use xlink:href="#m756ec8b5b2" x="269.372687" y="272.413969" style="stroke: #000000; stroke-linejoin: bevel"/>
     <use xlink:href="#m756ec8b5b2" x="272.909777" y="287.029433" style="stroke: #000000; stroke-linejoin: bevel"/>
     <use xlink:href="#m756ec8b5b2" x="277.232886" y="265.783481" style="stroke: #000000; stroke-linejoin: bevel"/>
     <use xlink:href="#m756ec8b5b2" x="281.949006" y="235.026534" style="stroke: #000000; stroke-linejoin: bevel"/>
     <use xlink:href="#m756ec8b5b2" x="285.093086" y="277.447461" style="stroke: #000000; stroke-linejoin: bevel"/>
     <use xlink:href="#m756ec8b5b2" x="288.237166" y="284.746321" style="stroke: #000000; stroke-linejoin: bevel"/>
     <use xlink:href="#m756ec8b5b2" x="290.595226" y="296.138221" style="stroke: #000000; stroke-linejoin: bevel"/>
     <use xlink:href="#m756ec8b5b2" x="293.935811" y="268.238122" style="stroke: #000000; stroke-linejoin: bevel"/>
     <use xlink:href="#m756ec8b5b2" x="296.097366" y="285.870133" style="stroke: #000000; stroke-linejoin: bevel"/>
     <use xlink:href="#m756ec8b5b2" x="303.171546" y="292.358666" style="stroke: #000000; stroke-linejoin: bevel"/>
     <use xlink:href="#m756ec8b5b2" x="307.298151" y="295.901629" style="stroke: #000000; stroke-linejoin: bevel"/>
     <use xlink:href="#m756ec8b5b2" x="325.376611" y="262.642723" style="stroke: #000000; stroke-linejoin: bevel"/>
     <use xlink:href="#m756ec8b5b2" x="342.669051" y="296.179625" style="stroke: #000000; stroke-linejoin: bevel"/>
     <use xlink:href="#m756ec8b5b2" x="355.834885" y="298.983239" style="stroke: #000000; stroke-linejoin: bevel"/>
     <use xlink:href="#m756ec8b5b2" x="376.0749" y="282.350828" style="stroke: #000000; stroke-linejoin: bevel"/>
    </g>
   </g>
   <g id="patch_3">
    <path d="M 45.75 312.9 
L 45.75 24 
" style="fill: none; stroke: #000000; stroke-width: 0.8; stroke-linejoin: miter; stroke-linecap: square"/>
   </g>
   <g id="patch_4">
    <path d="M 448.585244 312.9 
L 448.585244 24 
" style="fill: none; stroke: #000000; stroke-width: 0.8; stroke-linejoin: miter; stroke-linecap: square"/>
   </g>
   <g id="patch_5">
    <path d="M 45.75 312.9 
L 448.585244 312.9 
" style="fill: none; stroke: #000000; stroke-width: 0.8; stroke-linejoin: miter; stroke-linecap: square"/>
   </g>
   <g id="patch_6">
    <path d="M 45.75 24 
L 448.585244 24 
" style="fill: none; stroke: #000000; stroke-width: 0.8; stroke-linejoin: miter; stroke-linecap: square"/>
   </g>
   <g id="text_21">
    <!-- 332 -->
    <g transform="translate(110.989659 296.6384) scale(0.08 -0.08)">
     <use xlink:href="#DejaVuSans-33"/>
     <use xlink:href="#DejaVuSans-33" x="63.623047"/>
     <use xlink:href="#DejaVuSans-32" x="127.246094"/>
    </g>
   </g>
   <g id="text_22">
    <!-- 444 -->
    <g transform="translate(132.998219 254.31211) scale(0.08 -0.08)">
     <use xlink:href="#DejaVuSans-34"/>
     <use xlink:href="#DejaVuSans-34" x="63.623047"/>
     <use xlink:href="#DejaVuSans-34" x="127.246094"/>
    </g>
   </g>
   <g id="text_23">
    <!-- 544 -->
    <g transform="translate(152.648718 256.890961) scale(0.08 -0.08)">
     <use xlink:href="#DejaVuSans-35"/>
     <use xlink:href="#DejaVuSans-34" x="63.623047"/>
     <use xlink:href="#DejaVuSans-34" x="127.246094"/>
    </g>
   </g>
   <g id="text_24">
    <!-- 567 -->
    <g transform="translate(157.168333 63.483) scale(0.08 -0.08)">
     <defs>
      <path id="DejaVuSans-36" d="M 2113 2584 
Q 1688 2584 1439 2293 
Q 1191 2003 1191 1497 
Q 1191 994 1439 701 
Q 1688 409 2113 409 
Q 2538 409 2786 701 
Q 3034 994 3034 1497 
Q 3034 2003 2786 2293 
Q 2538 2584 2113 2584 
z
M 3366 4563 
L 3366 3988 
Q 3128 4100 2886 4159 
Q 2644 4219 2406 4219 
Q 1781 4219 1451 3797 
Q 1122 3375 1075 2522 
Q 1259 2794 1537 2939 
Q 1816 3084 2150 3084 
Q 2853 3084 3261 2657 
Q 3669 2231 3669 1497 
Q 3669 778 3244 343 
Q 2819 -91 2113 -91 
Q 1303 -91 875 529 
Q 447 1150 447 2328 
Q 447 3434 972 4092 
Q 1497 4750 2381 4750 
Q 2619 4750 2861 4703 
Q 3103 4656 3366 4563 
z
" transform="scale(0.015625)"/>
     </defs>
     <use xlink:href="#DejaVuSans-35"/>
     <use xlink:href="#DejaVuSans-36" x="63.623047"/>
     <use xlink:href="#DejaVuSans-37" x="127.246094"/>
    </g>
   </g>
   <g id="text_25">
    <!-- 630 -->
    <g transform="translate(169.548148 295.993687) scale(0.08 -0.08)">
     <use xlink:href="#DejaVuSans-36"/>
     <use xlink:href="#DejaVuSans-33" x="63.623047"/>
     <use xlink:href="#DejaVuSans-30" x="127.246094"/>
    </g>
   </g>
   <g id="text_26">
    <!-- 647 -->
    <g transform="translate(172.888733 280.485088) scale(0.08 -0.08)">
     <use xlink:href="#DejaVuSans-36"/>
     <use xlink:href="#DejaVuSans-34" x="63.623047"/>
     <use xlink:href="#DejaVuSans-37" x="127.246094"/>
    </g>
   </g>
   <g id="text_27">
    <!-- 676 -->
    <g transform="translate(178.587378 289.528814) scale(0.08 -0.08)">
     <use xlink:href="#DejaVuSans-36"/>
     <use xlink:href="#DejaVuSans-37" x="63.623047"/>
     <use xlink:href="#DejaVuSans-36" x="127.246094"/>
    </g>
   </g>
   <g id="text_28">
    <!-- 691 -->
    <g transform="translate(181.534953 297.460557) scale(0.08 -0.08)">
     <defs>
      <path id="DejaVuSans-39" d="M 703 97 
L 703 672 
Q 941 559 1184 500 
Q 1428 441 1663 441 
Q 2288 441 2617 861 
Q 2947 1281 2994 2138 
Q 2813 1869 2534 1725 
Q 2256 1581 1919 1581 
Q 1219 1581 811 2004 
Q 403 2428 403 3163 
Q 403 3881 828 4315 
Q 1253 4750 1959 4750 
Q 2769 4750 3195 4129 
Q 3622 3509 3622 2328 
Q 3622 1225 3098 567 
Q 2575 -91 1691 -91 
Q 1453 -91 1209 -44 
Q 966 3 703 97 
z
M 1959 2075 
Q 2384 2075 2632 2365 
Q 2881 2656 2881 3163 
Q 2881 3666 2632 3958 
Q 2384 4250 1959 4250 
Q 1534 4250 1286 3958 
Q 1038 3666 1038 3163 
Q 1038 2656 1286 2365 
Q 1534 2075 1959 2075 
z
" transform="scale(0.015625)"/>
     </defs>
     <use xlink:href="#DejaVuSans-36"/>
     <use xlink:href="#DejaVuSans-39" x="63.623047"/>
     <use xlink:href="#DejaVuSans-31" x="127.246094"/>
    </g>
   </g>
   <g id="text_29">
    <!-- 707 -->
    <g transform="translate(184.679033 269.122762) scale(0.08 -0.08)">
     <use xlink:href="#DejaVuSans-37"/>
     <use xlink:href="#DejaVuSans-30" x="63.623047"/>
     <use xlink:href="#DejaVuSans-37" x="127.246094"/>
    </g>
   </g>
   <g id="text_30">
    <!-- 730 -->
    <g transform="translate(189.198648 215.889586) scale(0.08 -0.08)">
     <use xlink:href="#DejaVuSans-37"/>
     <use xlink:href="#DejaVuSans-33" x="63.623047"/>
     <use xlink:href="#DejaVuSans-30" x="127.246094"/>
    </g>
   </g>
   <g id="text_31">
    <!-- 741 -->
    <g transform="translate(191.360203 266.904713) scale(0.08 -0.08)">
     <use xlink:href="#DejaVuSans-37"/>
     <use xlink:href="#DejaVuSans-34" x="63.623047"/>
     <use xlink:href="#DejaVuSans-31" x="127.246094"/>
    </g>
   </g>
   <g id="text_32">
    <!-- 767 -->
    <g transform="translate(196.469333 243.606326) scale(0.08 -0.08)">
     <use xlink:href="#DejaVuSans-37"/>
     <use xlink:href="#DejaVuSans-36" x="63.623047"/>
     <use xlink:href="#DejaVuSans-37" x="127.246094"/>
    </g>
   </g>
   <g id="text_33">
    <!-- 802 -->
    <g transform="translate(203.347008 180.223357) scale(0.08 -0.08)">
     <defs>
      <path id="DejaVuSans-38" d="M 2034 2216 
Q 1584 2216 1326 1975 
Q 1069 1734 1069 1313 
Q 1069 891 1326 650 
Q 1584 409 2034 409 
Q 2484 409 2743 651 
Q 3003 894 3003 1313 
Q 3003 1734 2745 1975 
Q 2488 2216 2034 2216 
z
M 1403 2484 
Q 997 2584 770 2862 
Q 544 3141 544 3541 
Q 544 4100 942 4425 
Q 1341 4750 2034 4750 
Q 2731 4750 3128 4425 
Q 3525 4100 3525 3541 
Q 3525 3141 3298 2862 
Q 3072 2584 2669 2484 
Q 3125 2378 3379 2068 
Q 3634 1759 3634 1313 
Q 3634 634 3220 271 
Q 2806 -91 2034 -91 
Q 1263 -91 848 271 
Q 434 634 434 1313 
Q 434 1759 690 2068 
Q 947 2378 1403 2484 
z
M 1172 3481 
Q 1172 3119 1398 2916 
Q 1625 2713 2034 2713 
Q 2441 2713 2670 2916 
Q 2900 3119 2900 3481 
Q 2900 3844 2670 4047 
Q 2441 4250 2034 4250 
Q 1625 4250 1398 4047 
Q 1172 3844 1172 3481 
z
" transform="scale(0.015625)"/>
     </defs>
     <use xlink:href="#DejaVuSans-38"/>
     <use xlink:href="#DejaVuSans-30" x="63.623047"/>
     <use xlink:href="#DejaVuSans-32" x="127.246094"/>
    </g>
   </g>
   <g id="text_34">
    <!-- 826 -->
    <g transform="translate(208.063128 258.931566) scale(0.08 -0.08)">
     <use xlink:href="#DejaVuSans-38"/>
     <use xlink:href="#DejaVuSans-32" x="63.623047"/>
     <use xlink:href="#DejaVuSans-36" x="127.246094"/>
    </g>
   </g>
   <g id="text_35">
    <!-- 841 -->
    <g transform="translate(211.010702 266.277745) scale(0.08 -0.08)">
     <use xlink:href="#DejaVuSans-38"/>
     <use xlink:href="#DejaVuSans-34" x="63.623047"/>
     <use xlink:href="#DejaVuSans-31" x="127.246094"/>
    </g>
   </g>
   <g id="text_36">
    <!-- 893 -->
    <g transform="translate(221.228962 253.064087) scale(0.08 -0.08)">
     <use xlink:href="#DejaVuSans-38"/>
     <use xlink:href="#DejaVuSans-39" x="63.623047"/>
     <use xlink:href="#DejaVuSans-33" x="127.246094"/>
    </g>
   </g>
   <g id="text_37">
    <!-- 914 -->
    <g transform="translate(225.355567 185.481612) scale(0.08 -0.08)">
     <use xlink:href="#DejaVuSans-39"/>
     <use xlink:href="#DejaVuSans-31" x="63.623047"/>
     <use xlink:href="#DejaVuSans-34" x="127.246094"/>
    </g>
   </g>
   <g id="text_38">
    <!-- 944 -->
    <g transform="translate(231.250717 279.580124) scale(0.08 -0.08)">
     <use xlink:href="#DejaVuSans-39"/>
     <use xlink:href="#DejaVuSans-34" x="63.623047"/>
     <use xlink:href="#DejaVuSans-34" x="127.246094"/>
    </g>
   </g>
   <g id="text_39">
    <!-- 960 -->
    <g transform="translate(234.394797 260.593625) scale(0.08 -0.08)">
     <use xlink:href="#DejaVuSans-39"/>
     <use xlink:href="#DejaVuSans-36" x="63.623047"/>
     <use xlink:href="#DejaVuSans-30" x="127.246094"/>
    </g>
   </g>
   <g id="text_40">
    <!-- 972 -->
    <g transform="translate(236.752857 288.960993) scale(0.08 -0.08)">
     <use xlink:href="#DejaVuSans-39"/>
     <use xlink:href="#DejaVuSans-37" x="63.623047"/>
     <use xlink:href="#DejaVuSans-32" x="127.246094"/>
    </g>
   </g>
   <g id="text_41">
    <!-- 1005 -->
    <g transform="translate(243.237522 175.6039) scale(0.08 -0.08)">
     <use xlink:href="#DejaVuSans-31"/>
     <use xlink:href="#DejaVuSans-30" x="63.623047"/>
     <use xlink:href="#DejaVuSans-30" x="127.246094"/>
     <use xlink:href="#DejaVuSans-35" x="190.869141"/>
    </g>
   </g>
   <g id="text_42">
    <!-- 1022 -->
    <g transform="translate(246.578107 291.078491) scale(0.08 -0.08)">
     <use xlink:href="#DejaVuSans-31"/>
     <use xlink:href="#DejaVuSans-30" x="63.623047"/>
     <use xlink:href="#DejaVuSans-32" x="127.246094"/>
     <use xlink:href="#DejaVuSans-32" x="190.869141"/>
    </g>
   </g>
   <g id="text_43">
    <!-- 1055 -->
    <g transform="translate(253.062772 107.015909) scale(0.08 -0.08)">
     <use xlink:href="#DejaVuSans-31"/>
     <use xlink:href="#DejaVuSans-30" x="63.623047"/>
     <use xlink:href="#DejaVuSans-35" x="127.246094"/>
     <use xlink:href="#DejaVuSans-35" x="190.869141"/>
    </g>
   </g>
   <g id="text_44">
    <!-- 1079 -->
    <g transform="translate(257.778892 260.765154) scale(0.08 -0.08)">
     <use xlink:href="#DejaVuSans-31"/>
     <use xlink:href="#DejaVuSans-30" x="63.623047"/>
     <use xlink:href="#DejaVuSans-37" x="127.246094"/>
     <use xlink:href="#DejaVuSans-39" x="190.869141"/>
    </g>
   </g>
   <g id="text_45">
    <!-- 1138 -->
    <g transform="translate(269.372687 269.524969) scale(0.08 -0.08)">
     <use xlink:href="#DejaVuSans-31"/>
     <use xlink:href="#DejaVuSans-31" x="63.623047"/>
     <use xlink:href="#DejaVuSans-33" x="127.246094"/>
     <use xlink:href="#DejaVuSans-38" x="190.869141"/>
    </g>
   </g>
   <g id="text_46">
    <!-- 1156 -->
    <g transform="translate(272.909777 284.140433) scale(0.08 -0.08)">
     <use xlink:href="#DejaVuSans-31"/>
     <use xlink:href="#DejaVuSans-31" x="63.623047"/>
     <use xlink:href="#DejaVuSans-35" x="127.246094"/>
     <use xlink:href="#DejaVuSans-36" x="190.869141"/>
    </g>
   </g>
   <g id="text_47">
    <!-- 1178 -->
    <g transform="translate(277.232886 262.894481) scale(0.08 -0.08)">
     <use xlink:href="#DejaVuSans-31"/>
     <use xlink:href="#DejaVuSans-31" x="63.623047"/>
     <use xlink:href="#DejaVuSans-37" x="127.246094"/>
     <use xlink:href="#DejaVuSans-38" x="190.869141"/>
    </g>
   </g>
   <g id="text_48">
    <!-- 1202 -->
    <g transform="translate(281.949006 232.137534) scale(0.08 -0.08)">
     <use xlink:href="#DejaVuSans-31"/>
     <use xlink:href="#DejaVuSans-32" x="63.623047"/>
     <use xlink:href="#DejaVuSans-30" x="127.246094"/>
     <use xlink:href="#DejaVuSans-32" x="190.869141"/>
    </g>
   </g>
   <g id="text_49">
    <!-- 1218 -->
    <g transform="translate(285.093086 274.558461) scale(0.08 -0.08)">
     <use xlink:href="#DejaVuSans-31"/>
     <use xlink:href="#DejaVuSans-32" x="63.623047"/>
     <use xlink:href="#DejaVuSans-31" x="127.246094"/>
     <use xlink:href="#DejaVuSans-38" x="190.869141"/>
    </g>
   </g>
   <g id="text_50">
    <!-- 1234 -->
    <g transform="translate(288.237166 281.857321) scale(0.08 -0.08)">
     <use xlink:href="#DejaVuSans-31"/>
     <use xlink:href="#DejaVuSans-32" x="63.623047"/>
     <use xlink:href="#DejaVuSans-33" x="127.246094"/>
     <use xlink:href="#DejaVuSans-34" x="190.869141"/>
    </g>
   </g>
   <g id="text_51">
    <!-- 1246 -->
    <g transform="translate(290.595226 293.249221) scale(0.08 -0.08)">
     <use xlink:href="#DejaVuSans-31"/>
     <use xlink:href="#DejaVuSans-32" x="63.623047"/>
     <use xlink:href="#DejaVuSans-34" x="127.246094"/>
     <use xlink:href="#DejaVuSans-36" x="190.869141"/>
    </g>
   </g>
   <g id="text_52">
    <!-- 1263 -->
    <g transform="translate(293.935811 265.349122) scale(0.08 -0.08)">
     <use xlink:href="#DejaVuSans-31"/>
     <use xlink:href="#DejaVuSans-32" x="63.623047"/>
     <use xlink:href="#DejaVuSans-36" x="127.246094"/>
     <use xlink:href="#DejaVuSans-33" x="190.869141"/>
    </g>
   </g>
   <g id="text_53">
    <!-- 1274 -->
    <g transform="translate(296.097366 282.981133) scale(0.08 -0.08)">
     <use xlink:href="#DejaVuSans-31"/>
     <use xlink:href="#DejaVuSans-32" x="63.623047"/>
     <use xlink:href="#DejaVuSans-37" x="127.246094"/>
     <use xlink:href="#DejaVuSans-34" x="190.869141"/>
    </g>
   </g>
   <g id="text_54">
    <!-- 1310 -->
    <g transform="translate(303.171546 289.469666) scale(0.08 -0.08)">
     <use xlink:href="#DejaVuSans-31"/>
     <use xlink:href="#DejaVuSans-33" x="63.623047"/>
     <use xlink:href="#DejaVuSans-31" x="127.246094"/>
     <use xlink:href="#DejaVuSans-30" x="190.869141"/>
    </g>
   </g>
   <g id="text_55">
    <!-- 1331 -->
    <g transform="translate(307.298151 293.012629) scale(0.08 -0.08)">
     <use xlink:href="#DejaVuSans-31"/>
     <use xlink:href="#DejaVuSans-33" x="63.623047"/>
     <use xlink:href="#DejaVuSans-33" x="127.246094"/>
     <use xlink:href="#DejaVuSans-31" x="190.869141"/>
    </g>
   </g>
   <g id="text_56">
    <!-- 1423 -->
    <g transform="translate(325.376611 259.753723) scale(0.08 -0.08)">
     <use xlink:href="#DejaVuSans-31"/>
     <use xlink:href="#DejaVuSans-34" x="63.623047"/>
     <use xlink:href="#DejaVuSans-32" x="127.246094"/>
     <use xlink:href="#DejaVuSans-33" x="190.869141"/>
    </g>
   </g>
   <g id="text_57">
    <!-- 1511 -->
    <g transform="translate(342.669051 293.290625) scale(0.08 -0.08)">
     <use xlink:href="#DejaVuSans-31"/>
     <use xlink:href="#DejaVuSans-35" x="63.623047"/>
     <use xlink:href="#DejaVuSans-31" x="127.246094"/>
     <use xlink:href="#DejaVuSans-31" x="190.869141"/>
    </g>
   </g>
   <g id="text_58">
    <!-- 1578 -->
    <g transform="translate(355.834885 296.094239) scale(0.08 -0.08)">
     <use xlink:href="#DejaVuSans-31"/>
     <use xlink:href="#DejaVuSans-35" x="63.623047"/>
     <use xlink:href="#DejaVuSans-37" x="127.246094"/>
     <use xlink:href="#DejaVuSans-38" x="190.869141"/>
    </g>
   </g>
   <g id="text_59">
    <!-- 1681 -->
    <g transform="translate(376.0749 279.461828) scale(0.08 -0.08)">
     <use xlink:href="#DejaVuSans-31"/>
     <use xlink:href="#DejaVuSans-36" x="63.623047"/>
     <use xlink:href="#DejaVuSans-38" x="127.246094"/>
     <use xlink:href="#DejaVuSans-31" x="190.869141"/>
    </g>
   </g>
   <g id="text_60">
    <!-- 20210520.0177.fits   Grating: 150/5000   GRANGLE: 21.00   Lamps: Cd, Ar, Ne, Hg -->
    <g transform="translate(49.217872 18) scale(0.096 -0.096)">
     <defs>
      <path id="DejaVuSans-2e" d="M 684 794 
L 1344 794 
L 1344 0 
L 684 0 
L 684 794 
z
" transform="scale(0.015625)"/>
      <path id="DejaVuSans-66" d="M 2375 4863 
L 2375 4384 
L 1825 4384 
Q 1516 4384 1395 4259 
Q 1275 4134 1275 3809 
L 1275 3500 
L 2222 3500 
L 2222 3053 
L 1275 3053 
L 1275 0 
L 697 0 
L 697 3053 
L 147 3053 
L 147 3500 
L 697 3500 
L 697 3744 
Q 697 4328 969 4595 
Q 1241 4863 1831 4863 
L 2375 4863 
z
" transform="scale(0.015625)"/>
      <path id="DejaVuSans-69" d="M 603 3500 
L 1178 3500 
L 1178 0 
L 603 0 
L 603 3500 
z
M 603 4863 
L 1178 4863 
L 1178 4134 
L 603 4134 
L 603 4863 
z
" transform="scale(0.015625)"/>
      <path id="DejaVuSans-74" d="M 1172 4494 
L 1172 3500 
L 2356 3500 
L 2356 3053 
L 1172 3053 
L 1172 1153 
Q 1172 725 1289 603 
Q 1406 481 1766 481 
L 2356 481 
L 2356 0 
L 1766 0 
Q 1100 0 847 248 
Q 594 497 594 1153 
L 594 3053 
L 172 3053 
L 172 3500 
L 594 3500 
L 594 4494 
L 1172 4494 
z
" transform="scale(0.015625)"/>
      <path id="DejaVuSans-73" d="M 2834 3397 
L 2834 2853 
Q 2591 2978 2328 3040 
Q 2066 3103 1784 3103 
Q 1356 3103 1142 2972 
Q 928 2841 928 2578 
Q 928 2378 1081 2264 
Q 1234 2150 1697 2047 
L 1894 2003 
Q 2506 1872 2764 1633 
Q 3022 1394 3022 966 
Q 3022 478 2636 193 
Q 2250 -91 1575 -91 
Q 1294 -91 989 -36 
Q 684 19 347 128 
L 347 722 
Q 666 556 975 473 
Q 1284 391 1588 391 
Q 1994 391 2212 530 
Q 2431 669 2431 922 
Q 2431 1156 2273 1281 
Q 2116 1406 1581 1522 
L 1381 1569 
Q 847 1681 609 1914 
Q 372 2147 372 2553 
Q 372 3047 722 3315 
Q 1072 3584 1716 3584 
Q 2034 3584 2315 3537 
Q 2597 3491 2834 3397 
z
" transform="scale(0.015625)"/>
      <path id="DejaVuSans-47" d="M 3809 666 
L 3809 1919 
L 2778 1919 
L 2778 2438 
L 4434 2438 
L 4434 434 
Q 4069 175 3628 42 
Q 3188 -91 2688 -91 
Q 1594 -91 976 548 
Q 359 1188 359 2328 
Q 359 3472 976 4111 
Q 1594 4750 2688 4750 
Q 3144 4750 3555 4637 
Q 3966 4525 4313 4306 
L 4313 3634 
Q 3963 3931 3569 4081 
Q 3175 4231 2741 4231 
Q 1884 4231 1454 3753 
Q 1025 3275 1025 2328 
Q 1025 1384 1454 906 
Q 1884 428 2741 428 
Q 3075 428 3337 486 
Q 3600 544 3809 666 
z
" transform="scale(0.015625)"/>
      <path id="DejaVuSans-72" d="M 2631 2963 
Q 2534 3019 2420 3045 
Q 2306 3072 2169 3072 
Q 1681 3072 1420 2755 
Q 1159 2438 1159 1844 
L 1159 0 
L 581 0 
L 581 3500 
L 1159 3500 
L 1159 2956 
Q 1341 3275 1631 3429 
Q 1922 3584 2338 3584 
Q 2397 3584 2469 3576 
Q 2541 3569 2628 3553 
L 2631 2963 
z
" transform="scale(0.015625)"/>
      <path id="DejaVuSans-61" d="M 2194 1759 
Q 1497 1759 1228 1600 
Q 959 1441 959 1056 
Q 959 750 1161 570 
Q 1363 391 1709 391 
Q 2188 391 2477 730 
Q 2766 1069 2766 1631 
L 2766 1759 
L 2194 1759 
z
M 3341 1997 
L 3341 0 
L 2766 0 
L 2766 531 
Q 2569 213 2275 61 
Q 1981 -91 1556 -91 
Q 1019 -91 701 211 
Q 384 513 384 1019 
Q 384 1609 779 1909 
Q 1175 2209 1959 2209 
L 2766 2209 
L 2766 2266 
Q 2766 2663 2505 2880 
Q 2244 3097 1772 3097 
Q 1472 3097 1187 3025 
Q 903 2953 641 2809 
L 641 3341 
Q 956 3463 1253 3523 
Q 1550 3584 1831 3584 
Q 2591 3584 2966 3190 
Q 3341 2797 3341 1997 
z
" transform="scale(0.015625)"/>
      <path id="DejaVuSans-67" d="M 2906 1791 
Q 2906 2416 2648 2759 
Q 2391 3103 1925 3103 
Q 1463 3103 1205 2759 
Q 947 2416 947 1791 
Q 947 1169 1205 825 
Q 1463 481 1925 481 
Q 2391 481 2648 825 
Q 2906 1169 2906 1791 
z
M 3481 434 
Q 3481 -459 3084 -895 
Q 2688 -1331 1869 -1331 
Q 1566 -1331 1297 -1286 
Q 1028 -1241 775 -1147 
L 775 -588 
Q 1028 -725 1275 -790 
Q 1522 -856 1778 -856 
Q 2344 -856 2625 -561 
Q 2906 -266 2906 331 
L 2906 616 
Q 2728 306 2450 153 
Q 2172 0 1784 0 
Q 1141 0 747 490 
Q 353 981 353 1791 
Q 353 2603 747 3093 
Q 1141 3584 1784 3584 
Q 2172 3584 2450 3431 
Q 2728 3278 2906 2969 
L 2906 3500 
L 3481 3500 
L 3481 434 
z
" transform="scale(0.015625)"/>
      <path id="DejaVuSans-3a" d="M 750 794 
L 1409 794 
L 1409 0 
L 750 0 
L 750 794 
z
M 750 3309 
L 1409 3309 
L 1409 2516 
L 750 2516 
L 750 3309 
z
" transform="scale(0.015625)"/>
      <path id="DejaVuSans-2f" d="M 1625 4666 
L 2156 4666 
L 531 -594 
L 0 -594 
L 1625 4666 
z
" transform="scale(0.015625)"/>
      <path id="DejaVuSans-52" d="M 2841 2188 
Q 3044 2119 3236 1894 
Q 3428 1669 3622 1275 
L 4263 0 
L 3584 0 
L 2988 1197 
Q 2756 1666 2539 1819 
Q 2322 1972 1947 1972 
L 1259 1972 
L 1259 0 
L 628 0 
L 628 4666 
L 2053 4666 
Q 2853 4666 3247 4331 
Q 3641 3997 3641 3322 
Q 3641 2881 3436 2590 
Q 3231 2300 2841 2188 
z
M 1259 4147 
L 1259 2491 
L 2053 2491 
Q 2509 2491 2742 2702 
Q 2975 2913 2975 3322 
Q 2975 3731 2742 3939 
Q 2509 4147 2053 4147 
L 1259 4147 
z
" transform="scale(0.015625)"/>
      <path id="DejaVuSans-41" d="M 2188 4044 
L 1331 1722 
L 3047 1722 
L 2188 4044 
z
M 1831 4666 
L 2547 4666 
L 4325 0 
L 3669 0 
L 3244 1197 
L 1141 1197 
L 716 0 
L 50 0 
L 1831 4666 
z
" transform="scale(0.015625)"/>
      <path id="DejaVuSans-4c" d="M 628 4666 
L 1259 4666 
L 1259 531 
L 3531 531 
L 3531 0 
L 628 0 
L 628 4666 
z
" transform="scale(0.015625)"/>
      <path id="DejaVuSans-45" d="M 628 4666 
L 3578 4666 
L 3578 4134 
L 1259 4134 
L 1259 2753 
L 3481 2753 
L 3481 2222 
L 1259 2222 
L 1259 531 
L 3634 531 
L 3634 0 
L 628 0 
L 628 4666 
z
" transform="scale(0.015625)"/>
      <path id="DejaVuSans-70" d="M 1159 525 
L 1159 -1331 
L 581 -1331 
L 581 3500 
L 1159 3500 
L 1159 2969 
Q 1341 3281 1617 3432 
Q 1894 3584 2278 3584 
Q 2916 3584 3314 3078 
Q 3713 2572 3713 1747 
Q 3713 922 3314 415 
Q 2916 -91 2278 -91 
Q 1894 -91 1617 61 
Q 1341 213 1159 525 
z
M 3116 1747 
Q 3116 2381 2855 2742 
Q 2594 3103 2138 3103 
Q 1681 3103 1420 2742 
Q 1159 2381 1159 1747 
Q 1159 1113 1420 752 
Q 1681 391 2138 391 
Q 2594 391 2855 752 
Q 3116 1113 3116 1747 
z
" transform="scale(0.015625)"/>
      <path id="DejaVuSans-64" d="M 2906 2969 
L 2906 4863 
L 3481 4863 
L 3481 0 
L 2906 0 
L 2906 525 
Q 2725 213 2448 61 
Q 2172 -91 1784 -91 
Q 1150 -91 751 415 
Q 353 922 353 1747 
Q 353 2572 751 3078 
Q 1150 3584 1784 3584 
Q 2172 3584 2448 3432 
Q 2725 3281 2906 2969 
z
M 947 1747 
Q 947 1113 1208 752 
Q 1469 391 1925 391 
Q 2381 391 2643 752 
Q 2906 1113 2906 1747 
Q 2906 2381 2643 2742 
Q 2381 3103 1925 3103 
Q 1469 3103 1208 2742 
Q 947 2381 947 1747 
z
" transform="scale(0.015625)"/>
      <path id="DejaVuSans-2c" d="M 750 794 
L 1409 794 
L 1409 256 
L 897 -744 
L 494 -744 
L 750 256 
L 750 794 
z
" transform="scale(0.015625)"/>
      <path id="DejaVuSans-65" d="M 3597 1894 
L 3597 1613 
L 953 1613 
Q 991 1019 1311 708 
Q 1631 397 2203 397 
Q 2534 397 2845 478 
Q 3156 559 3463 722 
L 3463 178 
Q 3153 47 2828 -22 
Q 2503 -91 2169 -91 
Q 1331 -91 842 396 
Q 353 884 353 1716 
Q 353 2575 817 3079 
Q 1281 3584 2069 3584 
Q 2775 3584 3186 3129 
Q 3597 2675 3597 1894 
z
M 3022 2063 
Q 3016 2534 2758 2815 
Q 2500 3097 2075 3097 
Q 1594 3097 1305 2825 
Q 1016 2553 972 2059 
L 3022 2063 
z
" transform="scale(0.015625)"/>
      <path id="DejaVuSans-48" d="M 628 4666 
L 1259 4666 
L 1259 2753 
L 3553 2753 
L 3553 4666 
L 4184 4666 
L 4184 0 
L 3553 0 
L 3553 2222 
L 1259 2222 
L 1259 0 
L 628 0 
L 628 4666 
z
" transform="scale(0.015625)"/>
     </defs>
     <use xlink:href="#DejaVuSans-32"/>
     <use xlink:href="#DejaVuSans-30" x="63.623047"/>
     <use xlink:href="#DejaVuSans-32" x="127.246094"/>
     <use xlink:href="#DejaVuSans-31" x="190.869141"/>
     <use xlink:href="#DejaVuSans-30" x="254.492188"/>
     <use xlink:href="#DejaVuSans-35" x="318.115234"/>
     <use xlink:href="#DejaVuSans-32" x="381.738281"/>
     <use xlink:href="#DejaVuSans-30" x="445.361328"/>
     <use xlink:href="#DejaVuSans-2e" x="508.984375"/>
     <use xlink:href="#DejaVuSans-30" x="540.771484"/>
     <use xlink:href="#DejaVuSans-31" x="604.394531"/>
     <use xlink:href="#DejaVuSans-37" x="668.017578"/>
     <use xlink:href="#DejaVuSans-37" x="731.640625"/>
     <use xlink:href="#DejaVuSans-2e" x="795.263672"/>
     <use xlink:href="#DejaVuSans-66" x="827.050781"/>
     <use xlink:href="#DejaVuSans-69" x="862.255859"/>
     <use xlink:href="#DejaVuSans-74" x="890.039062"/>
     <use xlink:href="#DejaVuSans-73" x="929.248047"/>
     <use xlink:href="#DejaVuSans-20" x="981.347656"/>
     <use xlink:href="#DejaVuSans-20" x="1013.134766"/>
     <use xlink:href="#DejaVuSans-20" x="1044.921875"/>
     <use xlink:href="#DejaVuSans-47" x="1076.708984"/>
     <use xlink:href="#DejaVuSans-72" x="1154.199219"/>
     <use xlink:href="#DejaVuSans-61" x="1195.3125"/>
     <use xlink:href="#DejaVuSans-74" x="1256.591797"/>
     <use xlink:href="#DejaVuSans-69" x="1295.800781"/>
     <use xlink:href="#DejaVuSans-6e" x="1323.583984"/>
     <use xlink:href="#DejaVuSans-67" x="1386.962891"/>
     <use xlink:href="#DejaVuSans-3a" x="1450.439453"/>
     <use xlink:href="#DejaVuSans-20" x="1484.130859"/>
     <use xlink:href="#DejaVuSans-31" x="1515.917969"/>
     <use xlink:href="#DejaVuSans-35" x="1579.541016"/>
     <use xlink:href="#DejaVuSans-30" x="1643.164062"/>
     <use xlink:href="#DejaVuSans-2f" x="1706.787109"/>
     <use xlink:href="#DejaVuSans-35" x="1740.478516"/>
     <use xlink:href="#DejaVuSans-30" x="1804.101562"/>
     <use xlink:href="#DejaVuSans-30" x="1867.724609"/>
     <use xlink:href="#DejaVuSans-30" x="1931.347656"/>
     <use xlink:href="#DejaVuSans-20" x="1994.970703"/>
     <use xlink:href="#DejaVuSans-20" x="2026.757812"/>
     <use xlink:href="#DejaVuSans-20" x="2058.544922"/>
     <use xlink:href="#DejaVuSans-47" x="2090.332031"/>
     <use xlink:href="#DejaVuSans-52" x="2167.822266"/>
     <use xlink:href="#DejaVuSans-41" x="2233.304688"/>
     <use xlink:href="#DejaVuSans-4e" x="2301.712891"/>
     <use xlink:href="#DejaVuSans-47" x="2376.517578"/>
     <use xlink:href="#DejaVuSans-4c" x="2454.007812"/>
     <use xlink:href="#DejaVuSans-45" x="2509.720703"/>
     <use xlink:href="#DejaVuSans-3a" x="2572.904297"/>
     <use xlink:href="#DejaVuSans-20" x="2606.595703"/>
     <use xlink:href="#DejaVuSans-32" x="2638.382812"/>
     <use xlink:href="#DejaVuSans-31" x="2702.005859"/>
     <use xlink:href="#DejaVuSans-2e" x="2765.628906"/>
     <use xlink:href="#DejaVuSans-30" x="2797.416016"/>
     <use xlink:href="#DejaVuSans-30" x="2861.039062"/>
     <use xlink:href="#DejaVuSans-20" x="2924.662109"/>
     <use xlink:href="#DejaVuSans-20" x="2956.449219"/>
     <use xlink:href="#DejaVuSans-20" x="2988.236328"/>
     <use xlink:href="#DejaVuSans-4c" x="3020.023438"/>
     <use xlink:href="#DejaVuSans-61" x="3075.736328"/>
     <use xlink:href="#DejaVuSans-6d" x="3137.015625"/>
     <use xlink:href="#DejaVuSans-70" x="3234.427734"/>
     <use xlink:href="#DejaVuSans-73" x="3297.904297"/>
     <use xlink:href="#DejaVuSans-3a" x="3350.003906"/>
     <use xlink:href="#DejaVuSans-20" x="3383.695312"/>
     <use xlink:href="#DejaVuSans-43" x="3415.482422"/>
     <use xlink:href="#DejaVuSans-64" x="3485.306641"/>
     <use xlink:href="#DejaVuSans-2c" x="3548.783203"/>
     <use xlink:href="#DejaVuSans-20" x="3580.570312"/>
     <use xlink:href="#DejaVuSans-41" x="3612.357422"/>
     <use xlink:href="#DejaVuSans-72" x="3680.765625"/>
     <use xlink:href="#DejaVuSans-2c" x="3721.878906"/>
     <use xlink:href="#DejaVuSans-20" x="3753.666016"/>
     <use xlink:href="#DejaVuSans-4e" x="3785.453125"/>
     <use xlink:href="#DejaVuSans-65" x="3860.257812"/>
     <use xlink:href="#DejaVuSans-2c" x="3921.78125"/>
     <use xlink:href="#DejaVuSans-20" x="3953.568359"/>
     <use xlink:href="#DejaVuSans-48" x="3985.355469"/>
     <use xlink:href="#DejaVuSans-67" x="4060.550781"/>
    </g>
   </g>
  </g>
 </g>
 <defs>
  <clipPath id="p9f66f03bf6">
   <rect x="45.75" y="24" width="402.835244" height="288.9"/>
  </clipPath>
 </defs>
</svg>
